<svg height="100%" version="1.1" width="100%" xmlns="http://www.w3.org/2000/svg" preserveAspectRatio="xMidYMid meet"
     viewBox="0 0 600 442" xmlns:xlink="http://www.w3.org/1999/xlink">
    <desc>Created with Snap</desc>
    <defs/>
    <g id="root" contentwidth="200" contentheight="61.55218554861731">
        <rect class="background" height="2000%" width="2000%" y="-1000%" x="-1000%" style="" fill="none"/>
        <rect class="watermarklayer" height="100%" width="100%" y="0" x="0" style="" fill="none"/>
        <g class="content" id="content" transform="matrix(1.7841,0,0,1.7841,194.826,250.5272)">
            <g class="icon">
            </g>
            <g id="icon_name_and_slogan_gap">
            </g>
            <g class="name_and_slogan" id="name_and_slogan_id">
                <g class="name">
                    <g id="gSl6olwdtz46g" transform="matrix(1,0,0,1,4,0)" style="" fill="#ff6b1f">
                        <path d="M42.6 -31.4L42.6 -31.3L42.2 -30L31.8 -1.5L31.8 -1.2Q31.6 -1.2 31.6 -1L31.5 -0.9Q31.5 -0.9 31.6 -0.9L31.5 -0.7Q31.5 -0.6 31.4 -0.6Q31.4 -0.6 31.3 -0.6L31.3 -0.4Q31.3 -0.3 31.2 -0.4L30.8 -0.5Q30.8 -0.5 30.7 -0.7L30.7 -0.8L30.8 -0.9L30.8 -1.1Q30.7 -1.1 30.6 -1Q30.5 -0.9 30.5 -0.9L30.3 -0.9L30.2 -0.9L30 -0.9L29.7 -1L29.6 -1.1L29.7 -1.2Q29.6 -1.2 29.5 -1.2Q29.5 -1.2 29.5 -1.1Q29.2 -1.2 29.2 -1.2Q29.3 -1.4 29.2 -1.5Q29 -1.3 29 -1.2Q28.9 -1 28.7 -1.1Q28.7 -1.2 28.4 -1.2Q28.4 -1.4 28.4 -1.4Q28.4 -1.5 28.4 -1.5Q28.7 -1.6 28.4 -1.9Q28.4 -1.9 28.4 -1.9L28.3 -1.9L28.2 -1.7Q28.2 -1.6 28.1 -1.5Q28.1 -1.5 28.1 -1.4L27.9 -1.2L27.9 -1.2Q27.7 -1.2 27.6 -1.3Q27.6 -1.4 27.5 -1.4L27.4 -1.5L27.5 -1.8Q27.3 -1.6 27.3 -1.6Q27.3 -1.6 27.3 -1.5Q27.4 -1.5 27.4 -1.5Q27.4 -1.4 27.3 -1.4Q27.1 -1.3 27 -1.4Q26.9 -1.4 26.8 -1.4L26.7 -1.4L26.6 -1.4L26.4 -1.4L26.4 -1.6L26.4 -1.7Q26.4 -1.7 26.4 -1.8Q26.3 -1.7 26.1 -1.7L25.7 -1.7L25.7 -1.9L25.7 -2.1L25.5 -2.1Q25.4 -2.2 25.4 -2.2Q25.3 -2.2 25.4 -2.2Q25.4 -2.4 25.3 -2.4Q25.3 -2.6 25 -2.5L24.8 -2.7Q24.8 -2.9 24.9 -2.9Q25.2 -2.9 25.1 -3.2L25.1 -3.3L25.1 -3.4L25 -3.4Q24.8 -3.7 24.8 -4.1Q24.7 -4.5 24.7 -4.6Q24.7 -4.7 24.6 -4.4Q24.8 -3.5 24.6 -2.5Q24.8 -2.2 24.7 -2Q24.7 -1.9 24.6 -1.7Q24.6 -1.7 24.5 -1.7Q24.4 -1.7 24.3 -1.7Q24.1 -1.7 24 -1.7L24 -1.8Q24 -2.5 23.9 -2.9Q24 -3 24 -3.2Q23.6 -3.2 23.8 -3Q23.8 -2.9 23.8 -2.6Q23.8 -2.4 23.7 -2.3L23.6 -1.9Q23.4 -1.9 23.4 -1.7Q23.5 -1.5 23.5 -1.4L23.4 -1.4Q23.2 -1.4 23.1 -1.5Q23 -1.6 22.8 -1.6Q22.9 -1.7 22.8 -1.7L20.5 -17.4L15 -3.2Q15 -3 14.9 -2.9Q14.8 -2.8 14.8 -2.7L14.7 -2.6Q14.7 -2.5 14.8 -2.5L14.6 -2.4Q14.6 -2.3 14.6 -2.3Q14.5 -2.2 14.5 -2.2L14.5 -2.1Q14.5 -1.9 14.3 -2.1L14 -2.2Q14 -2.2 13.8 -2.4L13.8 -2.5L13.9 -2.6L13.9 -2.7Q13.8 -2.7 13.8 -2.7Q13.7 -2.6 13.6 -2.5L13.5 -2.5L13.3 -2.5L13.2 -2.5L13.2 -2.5Q13 -2.6 12.8 -2.3L12.5 -2.3Q12.4 -2.6 12.4 -3.1L12.2 -2.8L12.2 -2.7L12.3 -2.1Q12.2 -2 12.3 -2Q12.1 -2 12 -1.8Q11.9 -1.7 11.8 -1.6Q11.7 -1.6 11.7 -1.6Q11.6 -1.7 11.6 -1.7Q11.4 -2.2 11.5 -2.7Q11.4 -2.9 11.4 -3.2L11.3 -3L11.2 -2.8L11.2 -2.8L10.9 -2.9L11.1 -1.9Q11.2 -1.7 11 -1.6Q10.9 -1.6 10.8 -1.6Q10.7 -1.7 10.4 -1.5L10.4 -1.7L10.4 -2.2Q10.2 -2.5 10.2 -2.8L10 -2.5L10.2 -2.3L9.4 -2.2Q9.4 -2.3 9.3 -2.3Q9.3 -2.4 9.4 -2.4Q9.3 -2.7 9.3 -3.2L9.2 -3.4L9.1 -3.4L9.1 -3.5Q9.1 -3.5 9 -3.5Q8.9 -3.5 8.9 -3.5L8.7 -4.1Q8.7 -4.1 8.7 -4.1Q8.6 -4.2 8.6 -4.2Q8.6 -3.1 8.6 -2.6Q8.7 -2.4 8.6 -2.2Q8.6 -2 8.6 -1.9Q8.6 -1.8 8.5 -1.8Q8.4 -1.8 8.2 -1.8Q8.1 -1.9 8 -1.8L7.9 -1.9Q7.9 -2.7 7.8 -3L7.9 -3.3Q7.6 -3.3 7.8 -3.2Q7.7 -3 7.7 -2.7Q7.8 -2.5 7.7 -2.5L7.6 -2.1Q7.4 -2 7.5 -1.8Q7.5 -1.7 7.5 -1.6L7.4 -1.6Q7.3 -1.6 7.1 -1.7Q6.9 -1.7 6.8 -1.7Q6.8 -1.9 6.7 -1.9L5.8 -7.6Q5.3 -11.2 4.1 -19.5Q2.9 -27.8 3 -28.1L3 -28.8L3 -28.9L2.9 -29Q2.9 -29.4 3 -29.5L2.9 -29.5L3 -29.7Q3 -29.6 3.1 -29.6Q3.2 -29.6 3.2 -29.7Q3.5 -29.7 3.5 -29.7L3.5 -29.6Q3.6 -29.6 3.8 -29.4Q3.7 -29.3 3.8 -29.2L3.8 -29.2Q4 -29.5 4 -29.7Q4 -29.7 4 -29.8Q4 -29.9 4.1 -29.9L4.3 -29.9L4.6 -29.9L4.7 -29.6Q4.7 -29.9 4.8 -30Q4.9 -30.2 4.9 -30Q4.9 -29.9 5.3 -29.9Q5.2 -30 5.3 -30.1Q5.3 -30.2 5.2 -30.3Q5.2 -30.6 5.4 -30.4Q5.5 -30.4 5.5 -30.5Q5.6 -30.6 5.7 -30.6Q5.8 -30.6 5.8 -30.5Q5.9 -30.5 6 -30.2Q6 -30 6.1 -29.1Q6.2 -28.3 6.3 -28.2L6.3 -28.1Q6.3 -28.4 6.3 -28.5Q6.2 -28.6 6.1 -29.4Q6 -30.3 6 -30.8Q6.1 -30.8 6 -30.8Q6 -30.9 6 -31Q6 -31 6.1 -31L6.8 -31L6.9 -31Q6.9 -28.9 7.1 -28.4Q7.1 -28.4 7.2 -28.4Q7.1 -28.7 7.1 -28.9L7.1 -28.9L7.1 -30.8Q7 -30.8 6.9 -30.9Q6.9 -31 6.9 -31Q6.8 -31 6.9 -31.1Q6.9 -31.2 6.8 -31.3L6.9 -31.2Q7.1 -31.4 7.1 -31.5Q7.3 -31.6 7.3 -31.6Q7.3 -31.5 7.5 -31.5Q7.7 -31.4 7.7 -31.3Q7.7 -31.2 7.7 -31.3Q7.8 -31.3 7.8 -31.3Q7.9 -31.1 7.9 -30.1Q7.9 -29.2 8 -28.8L8.1 -28.7Q8.1 -28.9 8 -28.9L8 -29.5Q8 -31.1 7.9 -31.3Q7.8 -31.3 7.8 -31.4Q7.8 -31.5 7.8 -31.4Q8.1 -31.6 8.1 -31.7Q8.1 -31.7 8.1 -31.7Q8.2 -31.7 8.3 -31.7L8.4 -31.6Q8.5 -31.6 8.5 -31.5Q8.6 -31.3 8.6 -31.4Q8.5 -31.2 8.5 -31Q8.7 -31 8.8 -30.9Q8.9 -30.9 8.9 -31Q8.9 -31 8.9 -31Q8.8 -31.2 8.9 -31.3Q9 -31.4 9 -31.4L9.4 -31.5Q9.5 -31.4 9.5 -31.3Q9.5 -31.2 9.6 -31.3Q9.8 -31.1 9.6 -31Q9.6 -31 9.8 -30.9Q9.9 -30.8 9.9 -30.8L12.2 -14.7L18.1 -29.8Q18.4 -30 18.4 -30L18.9 -30Q18.8 -29.8 18.6 -29.2Q18.4 -28.7 18.5 -28.6Q18.7 -28.9 19 -29.4Q19.4 -30 19.5 -30.2Q19.7 -30.2 19.5 -30Q19.7 -29.7 19.4 -29.5L19.5 -29.5L19.6 -29.5Q20 -29.7 20 -30Q20 -30.2 20.1 -30.2L20.5 -30.1Q20.6 -30.1 20.6 -29.9Q20.5 -29.7 20.5 -29.6Q20.5 -29.5 20.5 -29.2L20.3 -28.9Q20.5 -28.8 20.5 -28.7L20.5 -28.6L20.5 -28.6L20.6 -28.6L21.1 -29.6Q21.2 -29.7 21.4 -29.7L21.7 -29.6Q21.8 -29.5 21.7 -29.5Q21.8 -29.3 21.7 -29.2L21.8 -29.1Q21.9 -29.1 21.9 -29.2Q22 -29.2 22 -29.2Q22.1 -29.2 22.2 -29.2Q22.2 -29.1 22.3 -28.9Q22.4 -28.7 22.4 -28.3Q22.4 -27.9 22.5 -27.6L22.5 -27.7Q22.4 -28.2 22.3 -28.7Q22.3 -29.2 22.4 -29.4Q22.5 -29.5 22.4 -29.5Q22.3 -29.5 22.4 -29.6Q22.4 -29.6 22.5 -29.7L23.1 -29.7L23.2 -29.6L23.2 -28.6L23.3 -28.6L23.3 -29.5L23.2 -29.6Q23.2 -29.7 23.2 -29.7Q23.2 -29.8 23.2 -30L23.2 -29.9L23.4 -30.2L23.5 -30.2Q23.5 -30.2 23.8 -30.2Q24 -30.1 24 -30Q24 -29.9 24.1 -29.9Q24.1 -30 24.2 -30Q24.3 -29.7 24.3 -28.3L24.3 -28.3L24.3 -28.2Q24.3 -29.7 24.3 -30Q24.2 -30 24.2 -30Q24.1 -30.1 24.2 -30Q24.4 -30.2 24.4 -30.3Q24.4 -30.3 24.5 -30.3Q24.5 -30.3 24.6 -30.3L24.8 -30.2Q24.8 -30.2 24.9 -30.1Q24.9 -30 25 -30Q24.8 -29.9 24.8 -29.6Q25.1 -29.6 25.1 -29.5Q25.2 -29.5 25.2 -29.6Q25.3 -29.7 25.2 -29.7Q25.1 -29.9 25.2 -30Q25.3 -30 25.3 -30L25.8 -30.1Q25.8 -30 25.8 -30Q25.8 -29.9 25.9 -30Q26.1 -29.7 25.9 -29.7Q26.1 -29.5 26.1 -29.4L28.6 -12.9L36.1 -33.4Q36.2 -33.7 36.3 -33.7Q36.4 -33.7 36.5 -33.6Q36.6 -33.5 36.7 -33.5Q36.6 -33.3 36.5 -32.8Q36.3 -32.2 36.4 -32.2Q36.6 -32.5 36.9 -33.1Q37.3 -33.6 37.4 -33.8Q37.6 -33.8 37.4 -33.7Q37.6 -33.3 37.4 -33.1L37.4 -33L37.5 -33Q38 -33.3 38 -33.7Q38 -33.8 38.1 -33.8L38.5 -33.8Q38.6 -33.8 38.6 -33.5Q38.5 -33.3 38.5 -33.2Q38.5 -33 38.5 -32.8L38.3 -32.5Q38.5 -32.4 38.5 -32.2Q38.2 -31.6 38.2 -31.3Q38.2 -31.4 38.1 -31.3Q38.1 -31.3 38.1 -31.2Q38.2 -31.2 38.3 -31.3Q38.7 -32.4 39 -33.2Q39.2 -33.3 39.4 -33.3L39.7 -33.2Q39.8 -33.1 39.7 -33Q39.8 -32.9 39.7 -32.8Q39.3 -32.1 39.2 -31.5Q39.1 -31.5 39.1 -31.4Q39.3 -31.3 39.3 -31.5Q39.3 -32 39.5 -32.1L39.8 -32.5L39.9 -32.4Q40 -32.2 40.2 -32.2Q40.2 -32.2 40.2 -32.2Q40.2 -32.1 40.2 -32.1Q40 -31.7 40 -31.5L40 -31.3Q40.1 -31.2 40.1 -31.3Q40.2 -31.3 40.2 -31.2Q40.2 -31.2 40.2 -31Q40.2 -30.7 40.2 -30.5Q40.1 -30.3 40 -30.2Q40.2 -30 40.2 -30.2Q40.3 -30.5 40.5 -31Q40.6 -31.5 40.8 -31.9Q41 -32 41 -32Q41.2 -32 41.2 -32.2Q41.2 -32.2 41.2 -32.2Q41.2 -32.2 41.3 -32.2Q41.7 -32 41.7 -32Q41.7 -32 41.7 -31.9Q41.7 -31.8 41.7 -31.8Q41.6 -31.5 41.5 -31.3Q41.4 -31.2 41.3 -31L41.4 -30.8Q41.4 -30.8 41.4 -30.8Q41.5 -30.8 41.5 -30.8Q41.6 -31.2 41.8 -31.5L41.9 -31.5Q42.2 -31.7 42.4 -31.9Q42.4 -31.7 42.5 -31.6Q42.6 -31.5 42.6 -31.4zM36.7 -33.6L36.7 -33.7L36.7 -33.6zM36.7 -33.5L36.7 -33.5L36.7 -33.6L36.8 -33.5L36.7 -33.5zM18.9 -29.9L18.9 -30L18.9 -30L18.9 -29.9zM21.6 -29Q21.5 -28.7 21.5 -28.6L21.5 -28.6Q21.5 -28.6 21.7 -28.7Q21.6 -28.8 21.6 -28.9Q21.7 -28.9 21.6 -29zM7.2 -28.4L7.2 -28.4Q7.1 -28.3 7.1 -28.2L7.2 -28.4zM23.2 -27.7L23.3 -27.3L23.3 -27.4L23.3 -27.6L23.3 -27.6L23.3 -27.8Q23.3 -27.7 23.2 -27.7zM10.9 -3.9L10.9 -4L10.9 -4L10.9 -3.9zM10 -3L10 -3Q9.9 -3 9.9 -3Q9.9 -3 10 -3zM27.5 -2.1L27.5 -2.2Q27.5 -2.2 27.5 -2.1Q27.5 -2.1 27.5 -2.1zM27.5 -1.9L27.5 -1.9L27.5 -1.9L27.5 -2L27.5 -1.9zM26.7 -1.4L26.7 -1.4Q26.6 -1.4 26.7 -1.4M77.9 -18.4L77.9 -18.2L75.8 -5.1Q75.8 -4.9 75.6 -4.9Q75.5 -4.8 75.3 -4.7Q75.2 -4.8 75.1 -4.8Q75.1 -4.8 75.1 -4.7Q75.1 -4.6 75.1 -4.6Q75.1 -4.5 75 -4.4Q74.8 -4.5 74.6 -4.2L74.3 -4.4Q74.1 -4.7 74.3 -5.2Q74.1 -5.2 74.1 -5Q73.9 -4.5 73.9 -4.2Q74.1 -4.1 73.9 -4.1Q73.8 -4.2 73.6 -4.1Q73.5 -4 73.4 -3.9Q73 -3.9 73.2 -4Q73.2 -4.5 73.3 -4.7Q73 -4.7 73 -4.6L72.8 -4.5L72.8 -4.3Q72.8 -4.3 72.8 -4.3Q72.8 -4.2 72.8 -4.2L72.9 -4.2L73 -3.5L72.9 -3.5Q72.7 -3.3 72.5 -3.3Q72.3 -3.2 72.1 -3.2Q72.1 -3.2 72 -3.2Q72 -3.2 72 -3.2L72 -2.8L70.3 -2.4Q70.3 -2.2 70.4 -2.1Q70.5 -2 70.5 -2.1L72.8 -2.6Q72.9 -2.6 73 -2.5Q73 -2.5 73.2 -2.5L73.5 -2.5Q73.5 -2.6 73.6 -2.5Q73.6 -2.5 73.5 -2.5L73.5 -1.9Q73.5 -1.8 73.5 -1.7Q73.4 -1.7 73.3 -1.7L72.2 -1.4Q72.2 -1.4 55.3 0.6L55.1 0.6Q55.1 0.6 54.9 0.6Q54.8 0.6 54.7 0.7Q54.6 0.7 54.6 0.6Q54.6 0.6 54.5 0.5Q54.5 0.4 54.4 0.4Q54.5 0.2 54.4 0L54.5 0Q54.7 -0.1 54.7 -0.2L55 -0.3L55 -0.2Q54.8 -0.6 54.5 -0.3Q54.4 -0.3 54.3 -0.4L54.2 -0.5L54.2 -0.5L54.2 -0.6Q54.2 -0.6 54.1 -0.7Q54.1 -0.8 54.2 -0.9Q54.2 -0.9 54.2 -0.9Q54.2 -0.9 54.2 -0.9Q54.2 -0.9 54.3 -1Q54.3 -1 54.4 -1Q54.2 -1.4 54 -1.4Q53.8 -1.6 54 -1.6L54.1 -1.9Q54 -1.9 54.1 -1.9Q54.2 -1.9 54.3 -2L54.3 -2.4Q54.3 -2.7 54.5 -2.7Q54.9 -2.9 55 -3.1L54.9 -3.1Q54.9 -2.9 54.7 -2.9L54.1 -2.7Q54 -2.6 53.9 -2.6Q53.8 -2.7 53.8 -2.7Q53.8 -2.7 53.8 -2.7L53.5 -3.2Q53.7 -3.3 53.7 -3.3Q53.9 -3.4 54.1 -3.5Q54.3 -3.5 54.5 -3.6Q54.5 -3.8 54.8 -3.8L54.9 -3.8Q54.9 -4 54.7 -3.9Q54.4 -3.8 54.2 -3.5Q54.2 -3.5 54.1 -3.5Q54 -3.5 54 -3.5L53.6 -3.5L53.5 -3.5Q53.4 -3.3 53.3 -3.4L52.9 -3.6Q52.8 -3.6 52.8 -3.7Q52.8 -3.8 53 -3.9Q53.1 -4 53.1 -4.2L53.2 -4.2Q53.3 -4.3 53.5 -4.3Q53.7 -4.4 54 -4.5Q54 -4.5 54.2 -4.5Q54.4 -4.6 54.5 -4.7L53.9 -4.6Q53.8 -4.6 53.1 -4.2L52.9 -4.2Q52.9 -4.2 52.7 -4.5L52.6 -4.6L52.6 -4.9Q52.6 -5.2 53 -5.2Q53.1 -5.2 53.1 -5.3Q53.2 -5.4 53.2 -5.4Q53.4 -5.4 53.5 -5.7Q53.3 -5.7 53.2 -5.6Q53 -5.4 52.9 -5.7Q52.8 -5.8 52.7 -5.9Q52.7 -6 52.7 -6.1L53 -6.5Q54.7 -6.8 60 -7.4Q65.4 -8.1 68.9 -8.4L69.8 -13.3L57.6 -11.7L57.4 -11.7Q57.4 -11.6 57.3 -11.6Q57.2 -11.7 57.1 -11.7Q57.1 -11.6 57 -11.4Q57 -11.3 57 -10.9Q56.9 -10.9 56.9 -11.7Q56.9 -11.7 56.7 -11.9Q56.8 -12 56.7 -12.2L56.8 -12.2Q57 -12.3 57 -12.5L57.2 -12.5L57.4 -12.5Q57.1 -12.8 56.8 -12.5L56.6 -12.5Q56.4 -12.5 56.5 -12.6Q56.6 -12.8 56.6 -12.8L56.6 -12.9Q56.6 -12.9 56.5 -13Q56.5 -13.1 56.6 -13.2Q56.5 -13.2 56.5 -13.2Q56.4 -13.2 56.5 -13.2Q56.6 -13.3 56.6 -13.5Q56.6 -13.5 56.4 -13.5Q56.2 -13.8 56.3 -13.8L56.5 -14Q56.5 -14 56.6 -14.2L56.6 -14.5L56.6 -14.6Q56.6 -14.8 56.7 -14.9Q56.7 -14.9 56.7 -14.9Q56.8 -15 56.8 -15L56.6 -15L56.6 -14.6Q56.6 -14.5 56.5 -14.4Q56.4 -14.2 56.3 -14.2L56.3 -14L55.7 -14.1Q55.6 -14.2 55.6 -14.2Q55.5 -14.2 55.6 -14.2Q55.7 -14.3 55.7 -14.5Q55.6 -14.8 55.7 -14.8Q55.7 -14.9 55.7 -15Q55.7 -15.1 55.6 -15.1L55.3 -15.1Q55.3 -15.3 55.3 -15.8Q55.3 -15.8 55.3 -15.9Q55.3 -15.9 55.3 -15.9Q55.3 -15.9 55.3 -15.9Q55.3 -16 55.3 -16Q55.3 -16.2 55.4 -16.3L55.3 -16.3L55.3 -16.4L55.3 -16.3Q55.2 -15.8 55.1 -15.3Q55 -14.9 54.9 -14.5Q55 -14.3 54.8 -14.2Q54.8 -14.1 54.8 -14Q54.8 -13.9 54.7 -13.8Q54.6 -13.8 54.5 -13.8Q54.3 -13.9 54.2 -14Q54.2 -14 54.1 -14.1L54 -14.2Q54.2 -14.7 54.2 -15.1Q54.2 -15.1 54.2 -15.3Q54.2 -15.3 54.1 -15.3Q54.1 -15.3 54.2 -15.2Q54.1 -15 54 -14.9Q54 -14.7 53.8 -14.6Q53.9 -14.5 53.8 -14.3Q53.6 -14.2 53.3 -13.8Q53 -14.2 52.8 -14.2Q52.8 -14.2 52.8 -14.3Q52.8 -14.4 52.8 -14.4Q53 -16.3 53.8 -21.2Q54.6 -26.2 54.8 -26.5Q54.9 -26.9 54.9 -27.1Q54.9 -27.1 54.9 -27.1Q55 -27.1 55 -27.1Q55 -27.2 54.9 -27.2Q54.9 -27.5 55 -27.6L55 -27.7L55.2 -27.9L55.4 -27.8L55.7 -27.8L55.8 -27.8Q55.8 -27.5 56 -27.4Q55.9 -27.4 55.9 -27.3Q55.8 -27.3 55.8 -27.2L56 -27.2Q56.1 -27.4 56.2 -27.7Q56.4 -27.7 56.4 -27.8L56.6 -27.8L56.7 -27.8L56.6 -27.9Q56.4 -27.9 56.5 -27.9L56.7 -28.4L56.8 -28.4L57.6 -28.7Q57.6 -28.7 58 -29Q57.9 -29 57.7 -28.9Q57.6 -28.8 57.5 -28.8Q57.2 -28.7 56.7 -28.4L56.6 -28.4Q56.6 -28.5 56.3 -28.7Q56.3 -28.7 56.3 -28.9L56.3 -29.1Q56.3 -29.4 56.6 -29.4Q56.7 -29.4 56.7 -29.4Q56.8 -29.5 56.8 -29.5Q57 -29.5 57.1 -29.8Q56.9 -29.8 56.8 -29.7Q56.6 -29.6 56.6 -29.8Q56.5 -29.9 56.5 -30Q56.4 -30.2 56.3 -30.3Q56.5 -30.3 56.6 -30.5Q75.9 -33.2 76 -32.9Q76.1 -33 76.5 -33Q76.8 -33 76.9 -33.1Q76.9 -33 77 -32.8Q77 -32.7 77.1 -32.7Q77.1 -32.6 76.3 -32.4Q75.5 -32.1 75.6 -32L75.8 -32Q76 -32 76.4 -32Q76.9 -32.1 77.1 -32Q77.2 -31.9 76.5 -31.7Q75.8 -31.5 75.5 -31.4L75.9 -31.2Q76 -31.2 76.1 -31.2Q76.1 -31.2 76.1 -31.2Q76.3 -31.2 76.5 -31.4Q76.8 -31.5 76.9 -31.5Q77.1 -31.6 77.1 -31.5Q77.2 -31.4 77.2 -31.2L77.2 -30.9L77.2 -30.7Q77.1 -30.5 76.5 -30.4Q76.4 -30.3 76.3 -30.2Q76.2 -30.2 76.1 -30.2Q76.1 -30 76 -29.8Q75.7 -29.7 74.8 -29.5Q74.8 -29.5 74.8 -29.5Q74.8 -29.5 74.8 -29.5Q74.8 -29.4 74.8 -29.3Q74.8 -29.3 74.8 -29.4Q76.2 -29.7 77.2 -30Q77.4 -30 77.4 -29.9Q77.4 -29.8 77.4 -29.7Q77.4 -29.5 77.5 -29.5Q77.5 -29.5 77.4 -29.3Q77 -29.2 77 -29.1Q75.9 -28.7 75.5 -28.6L75.5 -28.5Q75.9 -28.5 76.3 -28.7Q76.4 -28.7 76.6 -28.7Q76.7 -28.8 76.9 -28.7L76.9 -28.7L77 -28.1L76.9 -28.1Q76.8 -27.9 76.2 -27.7Q76.2 -27.7 76.1 -27.7Q76.1 -27.7 76.1 -27.7L76.1 -27.4L74.6 -27Q74.6 -26.9 74.6 -26.8Q74.7 -26.6 74.8 -26.7L76.9 -27.2Q76.9 -27.2 77 -27.2Q77.1 -27.1 77.2 -27.1L77.4 -27.1Q77.5 -27.2 77.5 -27.2Q77.6 -27.1 77.5 -27.1L77.5 -26.6Q77.5 -26.5 77.4 -26.3Q77.4 -26.2 77.3 -26.2L76.4 -26.1Q76.3 -26 62.2 -24.2L61.5 -19.4Q74.1 -21 74.1 -20.8Q74.3 -20.9 74.6 -20.9Q74.9 -21 75.1 -21Q75.1 -20.9 75.1 -20.7Q75.1 -20.6 75.2 -20.6Q75.2 -20.5 74.4 -20.3Q73.6 -20 73.8 -19.9L73.9 -19.9Q74.1 -19.9 74.5 -19.9Q75 -20 75.2 -19.9Q75.3 -19.8 74.6 -19.6Q73.9 -19.4 73.6 -19.3L74.1 -19.2L74.2 -19.1Q74.3 -19.2 74.3 -19.2L74.4 -19.2L74.6 -19.2Q75 -19.4 75.1 -19.4Q75.3 -19.6 75.3 -19.4L75.6 -19.6L75.7 -19.7Q75.7 -19.7 75.9 -19.5Q76.1 -19.4 76.1 -19.2L76.2 -19.2Q76.1 -19 75.9 -18.2Q75.7 -17.4 75.7 -17.1Q75.7 -17.1 75.8 -17Q75.8 -16.9 75.8 -16.8L75.8 -16.8Q75.8 -17 75.7 -17.1Q75.9 -17.5 76 -18.2Q76.2 -18.9 76.3 -19.2L76.2 -19.2L76.6 -19.5L76.9 -19.4L76.9 -19.2L76.9 -19.1Q76.9 -19 76.9 -18.8L76.9 -18.4Q77.2 -18.6 77.2 -18.6Q77.2 -18.9 77.2 -18.9Q77.3 -18.9 77.4 -19L77.8 -19L77.9 -18.7Q78 -18.7 78 -18.6Q78 -18.5 77.9 -18.4zM60.8 -28.2Q60.8 -28.2 60.8 -28.2Q60.8 -28.2 60.8 -28.2zM58.2 -28.1Q58.1 -28.1 58 -27.9L58.1 -27.9L58.1 -27.9L58.3 -28L58.4 -28Q58.4 -28.2 58.2 -28.1zM57.1 -27.8L57 -27.6L56.9 -27.4Q57.1 -27.5 57.2 -27.6Q57.3 -27.7 57.3 -27.8L57.2 -27.8L57.1 -27.8zM57.6 -27.8L57.4 -27.8L57.4 -27.7L57.4 -27.6L57.7 -27.8L57.6 -27.8zM76.2 -19.2Q76.2 -19.2 76.2 -19.2Q76.2 -19.2 76.2 -19.2zM74.9 -18.4L74.8 -17.7Q74.9 -17.7 75 -17.8L75.1 -18.4L74.9 -18.4zM73.9 -17.6L73.9 -17.5L74.1 -17.5L74.1 -17.7Q74.1 -17.6 73.9 -17.6zM74.7 -16.8L74.8 -16.8Q74.8 -16.8 74.7 -16.8Q74.6 -16.8 74.6 -16.7L74.8 -16.6L74.8 -16.6Q74.9 -16.6 74.9 -16.7L74.8 -16.8L74.7 -16.8zM73.2 -5.5Q73.2 -6.3 73.3 -6.6L73.3 -6.7Q73.3 -6.8 73.2 -6.7Q73.2 -6.7 73.1 -6.7Q73.2 -6.6 73.2 -6.4L73.2 -6.3L73.2 -6.3Q73.1 -6 72.9 -6Q72.9 -5.6 72.8 -5.5L73.2 -5.5zM72 -5.2L72.1 -5.8L72 -5.8L72 -5.5Q72 -5.4 71.9 -5.3Q71.8 -5.2 71.8 -5.2L72 -5.2zM70.7 -4.8L71.4 -5L71.2 -5L71.1 -5.1L70.6 -5Q70.6 -5 70.6 -5Q70.5 -5 70.5 -5Q70.5 -4.7 70.7 -4.8zM71.9 -4.2L72 -4.2L71.4 -4.1Q71.4 -4.1 71.3 -4.1Q71.3 -4 71.3 -4Q71.3 -3.9 71.3 -3.9Q71.4 -3.9 71.4 -4Q71.7 -4 72 -4.1Q71.9 -4.1 71.9 -4.1Q71.8 -4.2 71.9 -4.2M114.9 -18.4L114.9 -18.2L112.8 -5.1Q112.8 -4.9 112.6 -4.9Q112.5 -4.8 112.3 -4.7Q112.2 -4.8 112.1 -4.8Q112.1 -4.8 112.1 -4.7Q112.1 -4.6 112.1 -4.6Q112.1 -4.5 112 -4.4Q111.8 -4.5 111.6 -4.2L111.3 -4.4Q111.1 -4.7 111.3 -5.2Q111.1 -5.2 111.1 -5Q110.9 -4.5 110.9 -4.2Q111.1 -4.1 110.9 -4.1Q110.8 -4.2 110.6 -4.1Q110.5 -4 110.4 -3.9Q110 -3.9 110.2 -4Q110.2 -4.5 110.3 -4.7Q110 -4.7 110 -4.6L109.8 -4.5L109.8 -4.3Q109.8 -4.3 109.8 -4.3Q109.8 -4.2 109.8 -4.2L109.9 -4.2L110 -3.5L109.9 -3.5Q109.7 -3.3 109.5 -3.3Q109.3 -3.2 109.1 -3.2Q109.1 -3.2 109 -3.2Q109 -3.2 109 -3.2L109 -2.8L107.3 -2.4Q107.3 -2.2 107.4 -2.1Q107.5 -2 107.5 -2.1L109.8 -2.6Q109.9 -2.6 110 -2.5Q110 -2.5 110.2 -2.5L110.5 -2.5Q110.5 -2.6 110.6 -2.5Q110.6 -2.5 110.5 -2.5L110.5 -1.9Q110.5 -1.8 110.5 -1.7Q110.4 -1.7 110.3 -1.7L109.2 -1.4Q109.2 -1.4 92.3 0.6L92.1 0.6Q92.1 0.6 91.9 0.6Q91.8 0.6 91.7 0.7Q91.6 0.7 91.6 0.6Q91.6 0.6 91.5 0.5Q91.5 0.4 91.4 0.4Q91.5 0.2 91.4 0L91.5 0Q91.7 -0.1 91.7 -0.2L92 -0.3L92 -0.2Q91.8 -0.6 91.5 -0.3Q91.4 -0.3 91.3 -0.4L91.2 -0.5L91.2 -0.5L91.2 -0.6Q91.2 -0.6 91.1 -0.7Q91.1 -0.8 91.2 -0.9Q91.2 -0.9 91.2 -0.9Q91.2 -0.9 91.2 -0.9Q91.2 -0.9 91.3 -1Q91.3 -1 91.4 -1Q91.2 -1.4 91 -1.4Q90.8 -1.6 91 -1.6L91.1 -1.9Q91 -1.9 91.1 -1.9Q91.2 -1.9 91.3 -2L91.3 -2.4Q91.3 -2.7 91.5 -2.7Q91.9 -2.9 92 -3.1L91.9 -3.1Q91.9 -2.9 91.7 -2.9L91.1 -2.7Q91 -2.6 90.9 -2.6Q90.8 -2.7 90.8 -2.7Q90.8 -2.7 90.8 -2.7L90.5 -3.2Q90.7 -3.3 90.7 -3.3Q90.9 -3.4 91.1 -3.5Q91.3 -3.5 91.5 -3.6Q91.5 -3.8 91.8 -3.8L91.9 -3.8Q91.9 -4 91.7 -3.9Q91.4 -3.8 91.2 -3.5Q91.2 -3.5 91.1 -3.5Q91 -3.5 91 -3.5L90.6 -3.5L90.5 -3.5Q90.4 -3.3 90.3 -3.4L89.9 -3.6Q89.8 -3.6 89.8 -3.7Q89.8 -3.8 90 -3.9Q90.1 -4 90.1 -4.2L90.2 -4.2Q90.3 -4.3 90.5 -4.3Q90.7 -4.4 91 -4.5Q91 -4.5 91.2 -4.5Q91.4 -4.6 91.5 -4.7L90.9 -4.6Q90.8 -4.6 90.1 -4.2L89.9 -4.2Q89.9 -4.2 89.7 -4.5L89.6 -4.6L89.6 -4.9Q89.6 -5.2 90 -5.2Q90.1 -5.2 90.1 -5.3Q90.2 -5.4 90.2 -5.4Q90.4 -5.4 90.5 -5.7Q90.3 -5.7 90.2 -5.6Q90 -5.4 89.9 -5.7Q89.8 -5.8 89.7 -5.9Q89.7 -6 89.7 -6.1L90 -6.5Q91.7 -6.8 97 -7.4Q102.4 -8.1 105.9 -8.4L106.8 -13.3L94.6 -11.7L94.4 -11.7Q94.4 -11.6 94.3 -11.6Q94.2 -11.7 94.1 -11.7Q94.1 -11.6 94 -11.4Q94 -11.3 94 -10.9Q93.9 -10.9 93.9 -11.7Q93.9 -11.7 93.7 -11.9Q93.8 -12 93.7 -12.2L93.8 -12.2Q94 -12.3 94 -12.5L94.2 -12.5L94.4 -12.5Q94.1 -12.8 93.8 -12.5L93.6 -12.5Q93.4 -12.5 93.5 -12.6Q93.6 -12.8 93.6 -12.8L93.6 -12.9Q93.6 -12.9 93.5 -13Q93.5 -13.1 93.6 -13.2Q93.5 -13.2 93.5 -13.2Q93.4 -13.2 93.5 -13.2Q93.6 -13.3 93.6 -13.5Q93.6 -13.5 93.4 -13.5Q93.2 -13.8 93.3 -13.8L93.5 -14Q93.5 -14 93.6 -14.2L93.6 -14.5L93.6 -14.6Q93.6 -14.8 93.7 -14.9Q93.7 -14.9 93.7 -14.9Q93.8 -15 93.8 -15L93.6 -15L93.6 -14.6Q93.6 -14.5 93.5 -14.4Q93.4 -14.2 93.3 -14.2L93.3 -14L92.7 -14.1Q92.6 -14.2 92.6 -14.2Q92.5 -14.2 92.6 -14.2Q92.7 -14.3 92.7 -14.5Q92.6 -14.8 92.7 -14.8Q92.7 -14.9 92.7 -15Q92.7 -15.1 92.6 -15.1L92.3 -15.1Q92.3 -15.3 92.3 -15.8Q92.3 -15.8 92.3 -15.9Q92.3 -15.9 92.3 -15.9Q92.3 -15.9 92.3 -15.9Q92.3 -16 92.3 -16Q92.3 -16.2 92.4 -16.3L92.3 -16.3L92.3 -16.4L92.3 -16.3Q92.2 -15.8 92.1 -15.3Q92 -14.9 91.9 -14.5Q92 -14.3 91.8 -14.2Q91.8 -14.1 91.8 -14Q91.8 -13.9 91.7 -13.8Q91.6 -13.8 91.5 -13.8Q91.3 -13.9 91.2 -14Q91.2 -14 91.1 -14.1L91 -14.2Q91.2 -14.7 91.2 -15.1Q91.2 -15.1 91.2 -15.3Q91.2 -15.3 91.1 -15.3Q91.1 -15.3 91.2 -15.2Q91.1 -15 91 -14.9Q91 -14.7 90.8 -14.6Q90.9 -14.5 90.8 -14.3Q90.6 -14.2 90.3 -13.8Q90 -14.2 89.8 -14.2Q89.8 -14.2 89.8 -14.3Q89.8 -14.4 89.8 -14.4Q90 -16.3 90.8 -21.2Q91.6 -26.2 91.8 -26.5Q91.9 -26.9 91.9 -27.1Q91.9 -27.1 91.9 -27.1Q92 -27.1 92 -27.1Q92 -27.2 91.9 -27.2Q91.9 -27.5 92 -27.6L92 -27.7L92.2 -27.9L92.4 -27.8L92.7 -27.8L92.8 -27.8Q92.8 -27.5 93 -27.4Q92.9 -27.4 92.9 -27.3Q92.8 -27.3 92.8 -27.2L93 -27.2Q93.1 -27.4 93.2 -27.7Q93.4 -27.7 93.4 -27.8L93.6 -27.8L93.7 -27.8L93.6 -27.9Q93.4 -27.9 93.5 -27.9L93.7 -28.4L93.8 -28.4L94.6 -28.7Q94.6 -28.7 95 -29Q94.9 -29 94.7 -28.9Q94.6 -28.8 94.5 -28.8Q94.2 -28.7 93.7 -28.4L93.6 -28.4Q93.6 -28.5 93.3 -28.7Q93.3 -28.7 93.3 -28.9L93.3 -29.1Q93.3 -29.4 93.6 -29.4Q93.7 -29.4 93.7 -29.4Q93.8 -29.5 93.8 -29.5Q94 -29.5 94.1 -29.8Q93.9 -29.8 93.8 -29.7Q93.6 -29.6 93.6 -29.8Q93.5 -29.9 93.5 -30Q93.4 -30.2 93.3 -30.3Q93.5 -30.3 93.6 -30.5Q112.9 -33.2 113 -32.9Q113.1 -33 113.5 -33Q113.8 -33 113.9 -33.1Q113.9 -33 114 -32.8Q114 -32.7 114.1 -32.7Q114.1 -32.6 113.3 -32.4Q112.5 -32.1 112.6 -32L112.8 -32Q113 -32 113.4 -32Q113.9 -32.1 114.1 -32Q114.2 -31.9 113.5 -31.7Q112.8 -31.5 112.5 -31.4L112.9 -31.2Q113 -31.2 113.1 -31.2Q113.1 -31.2 113.1 -31.2Q113.3 -31.2 113.5 -31.4Q113.8 -31.5 113.9 -31.5Q114.1 -31.6 114.1 -31.5Q114.2 -31.4 114.2 -31.2L114.2 -30.9L114.2 -30.7Q114.1 -30.5 113.5 -30.4Q113.4 -30.3 113.3 -30.2Q113.2 -30.2 113.1 -30.2Q113.1 -30 113 -29.8Q112.7 -29.7 111.8 -29.5Q111.8 -29.5 111.8 -29.5Q111.8 -29.5 111.8 -29.5Q111.8 -29.4 111.8 -29.3Q111.8 -29.3 111.8 -29.4Q113.2 -29.7 114.2 -30Q114.4 -30 114.4 -29.9Q114.4 -29.8 114.4 -29.7Q114.4 -29.5 114.5 -29.5Q114.5 -29.5 114.4 -29.3Q114 -29.2 114 -29.1Q112.9 -28.7 112.5 -28.6L112.5 -28.5Q112.9 -28.5 113.3 -28.7Q113.4 -28.7 113.6 -28.7Q113.7 -28.8 113.9 -28.7L113.9 -28.7L114 -28.1L113.9 -28.1Q113.8 -27.9 113.2 -27.7Q113.2 -27.7 113.1 -27.7Q113.1 -27.7 113.1 -27.7L113.1 -27.4L111.6 -27Q111.6 -26.9 111.6 -26.8Q111.7 -26.6 111.8 -26.7L113.9 -27.2Q113.9 -27.2 114 -27.2Q114.1 -27.1 114.2 -27.1L114.4 -27.1Q114.5 -27.2 114.5 -27.2Q114.6 -27.1 114.5 -27.1L114.5 -26.6Q114.5 -26.5 114.4 -26.3Q114.4 -26.2 114.3 -26.2L113.4 -26.1Q113.3 -26 99.2 -24.2L98.5 -19.4Q111.1 -21 111.1 -20.8Q111.3 -20.9 111.6 -20.9Q111.9 -21 112.1 -21Q112.1 -20.9 112.1 -20.7Q112.1 -20.6 112.2 -20.6Q112.2 -20.5 111.4 -20.3Q110.6 -20 110.8 -19.9L110.9 -19.9Q111.1 -19.9 111.5 -19.9Q112 -20 112.2 -19.9Q112.3 -19.8 111.6 -19.6Q110.9 -19.4 110.6 -19.3L111.1 -19.2L111.2 -19.1Q111.3 -19.2 111.3 -19.2L111.4 -19.2L111.6 -19.2Q112 -19.4 112.1 -19.4Q112.3 -19.6 112.3 -19.4L112.6 -19.6L112.7 -19.7Q112.7 -19.7 112.9 -19.5Q113.1 -19.4 113.1 -19.2L113.2 -19.2Q113.1 -19 112.9 -18.2Q112.7 -17.4 112.7 -17.1Q112.7 -17.1 112.8 -17Q112.8 -16.9 112.8 -16.8L112.8 -16.8Q112.8 -17 112.7 -17.1Q112.9 -17.5 113 -18.2Q113.2 -18.9 113.3 -19.2L113.2 -19.2L113.6 -19.5L113.9 -19.4L113.9 -19.2L113.9 -19.1Q113.9 -19 113.9 -18.8L113.9 -18.4Q114.2 -18.6 114.2 -18.6Q114.2 -18.9 114.2 -18.9Q114.3 -18.9 114.4 -19L114.8 -19L114.9 -18.7Q115 -18.7 115 -18.6Q115 -18.5 114.9 -18.4zM97.8 -28.2Q97.8 -28.2 97.8 -28.2Q97.8 -28.2 97.8 -28.2zM95.2 -28.1Q95.1 -28.1 95 -27.9L95.1 -27.9L95.1 -27.9L95.3 -28L95.4 -28Q95.4 -28.2 95.2 -28.1zM94.1 -27.8L94 -27.6L93.9 -27.4Q94.1 -27.5 94.2 -27.6Q94.3 -27.7 94.3 -27.8L94.2 -27.8L94.1 -27.8zM94.6 -27.8L94.4 -27.8L94.4 -27.7L94.4 -27.6L94.7 -27.8L94.6 -27.8zM113.2 -19.2Q113.2 -19.2 113.2 -19.2Q113.2 -19.2 113.2 -19.2zM111.9 -18.4L111.8 -17.7Q111.9 -17.7 112 -17.8L112.1 -18.4L111.9 -18.4zM110.9 -17.6L110.9 -17.5L111.1 -17.5L111.1 -17.7Q111.1 -17.6 110.9 -17.6zM111.7 -16.8L111.8 -16.8Q111.8 -16.8 111.7 -16.8Q111.6 -16.8 111.6 -16.7L111.8 -16.6L111.8 -16.6Q111.9 -16.6 111.9 -16.7L111.8 -16.8L111.7 -16.8zM110.2 -5.5Q110.2 -6.3 110.3 -6.6L110.3 -6.7Q110.3 -6.8 110.2 -6.7Q110.2 -6.7 110.1 -6.7Q110.2 -6.6 110.2 -6.4L110.2 -6.3L110.2 -6.3Q110.1 -6 109.9 -6Q109.9 -5.6 109.8 -5.5L110.2 -5.5zM109 -5.2L109.1 -5.8L109 -5.8L109 -5.5Q109 -5.4 108.9 -5.3Q108.8 -5.2 108.8 -5.2L109 -5.2zM107.7 -4.8L108.4 -5L108.2 -5L108.1 -5.1L107.6 -5Q107.6 -5 107.6 -5Q107.5 -5 107.5 -5Q107.5 -4.7 107.7 -4.8zM108.9 -4.2L109 -4.2L108.4 -4.1Q108.4 -4.1 108.3 -4.1Q108.3 -4 108.3 -4Q108.3 -3.9 108.3 -3.9Q108.4 -3.9 108.4 -4Q108.7 -4 109 -4.1Q108.9 -4.1 108.9 -4.1Q108.8 -4.2 108.9 -4.2"
                              style="" fill="#ff6b1f" id="pathSl6olwdtz46h"/>
                    </g>
                    <g id="gSl6olwdtz46i" transform="matrix(1,0,0,1,-4,0)" style="" fill="#158bff">
                        <path d="M42.6 -31.4L42.6 -31.3L42.2 -30L31.8 -1.5L31.8 -1.2Q31.6 -1.2 31.6 -1L31.5 -0.9Q31.5 -0.9 31.6 -0.9L31.5 -0.7Q31.5 -0.6 31.4 -0.6Q31.4 -0.6 31.3 -0.6L31.3 -0.4Q31.3 -0.3 31.2 -0.4L30.8 -0.5Q30.8 -0.5 30.7 -0.7L30.7 -0.8L30.8 -0.9L30.8 -1.1Q30.7 -1.1 30.6 -1Q30.5 -0.9 30.5 -0.9L30.3 -0.9L30.2 -0.9L30 -0.9L29.7 -1L29.6 -1.1L29.7 -1.2Q29.6 -1.2 29.5 -1.2Q29.5 -1.2 29.5 -1.1Q29.2 -1.2 29.2 -1.2Q29.3 -1.4 29.2 -1.5Q29 -1.3 29 -1.2Q28.9 -1 28.7 -1.1Q28.7 -1.2 28.4 -1.2Q28.4 -1.4 28.4 -1.4Q28.4 -1.5 28.4 -1.5Q28.7 -1.6 28.4 -1.9Q28.4 -1.9 28.4 -1.9L28.3 -1.9L28.2 -1.7Q28.2 -1.6 28.1 -1.5Q28.1 -1.5 28.1 -1.4L27.9 -1.2L27.9 -1.2Q27.7 -1.2 27.6 -1.3Q27.6 -1.4 27.5 -1.4L27.4 -1.5L27.5 -1.8Q27.3 -1.6 27.3 -1.6Q27.3 -1.6 27.3 -1.5Q27.4 -1.5 27.4 -1.5Q27.4 -1.4 27.3 -1.4Q27.1 -1.3 27 -1.4Q26.9 -1.4 26.8 -1.4L26.7 -1.4L26.6 -1.4L26.4 -1.4L26.4 -1.6L26.4 -1.7Q26.4 -1.7 26.4 -1.8Q26.3 -1.7 26.1 -1.7L25.7 -1.7L25.7 -1.9L25.7 -2.1L25.5 -2.1Q25.4 -2.2 25.4 -2.2Q25.3 -2.2 25.4 -2.2Q25.4 -2.4 25.3 -2.4Q25.3 -2.6 25 -2.5L24.8 -2.7Q24.8 -2.9 24.9 -2.9Q25.2 -2.9 25.1 -3.2L25.1 -3.3L25.1 -3.4L25 -3.4Q24.8 -3.7 24.8 -4.1Q24.7 -4.5 24.7 -4.6Q24.7 -4.7 24.6 -4.4Q24.8 -3.5 24.6 -2.5Q24.8 -2.2 24.7 -2Q24.7 -1.9 24.6 -1.7Q24.6 -1.7 24.5 -1.7Q24.4 -1.7 24.3 -1.7Q24.1 -1.7 24 -1.7L24 -1.8Q24 -2.5 23.9 -2.9Q24 -3 24 -3.2Q23.6 -3.2 23.8 -3Q23.8 -2.9 23.8 -2.6Q23.8 -2.4 23.7 -2.3L23.6 -1.9Q23.4 -1.9 23.4 -1.7Q23.5 -1.5 23.5 -1.4L23.4 -1.4Q23.2 -1.4 23.1 -1.5Q23 -1.6 22.8 -1.6Q22.9 -1.7 22.8 -1.7L20.5 -17.4L15 -3.2Q15 -3 14.9 -2.9Q14.8 -2.8 14.8 -2.7L14.7 -2.6Q14.7 -2.5 14.8 -2.5L14.6 -2.4Q14.6 -2.3 14.6 -2.3Q14.5 -2.2 14.5 -2.2L14.5 -2.1Q14.5 -1.9 14.3 -2.1L14 -2.2Q14 -2.2 13.8 -2.4L13.8 -2.5L13.9 -2.6L13.9 -2.7Q13.8 -2.7 13.8 -2.7Q13.7 -2.6 13.6 -2.5L13.5 -2.5L13.3 -2.5L13.2 -2.5L13.2 -2.5Q13 -2.6 12.8 -2.3L12.5 -2.3Q12.4 -2.6 12.4 -3.1L12.2 -2.8L12.2 -2.7L12.3 -2.1Q12.2 -2 12.3 -2Q12.1 -2 12 -1.8Q11.9 -1.7 11.8 -1.6Q11.7 -1.6 11.7 -1.6Q11.6 -1.7 11.6 -1.7Q11.4 -2.2 11.5 -2.7Q11.4 -2.9 11.4 -3.2L11.3 -3L11.2 -2.8L11.2 -2.8L10.9 -2.9L11.1 -1.9Q11.2 -1.7 11 -1.6Q10.9 -1.6 10.8 -1.6Q10.7 -1.7 10.4 -1.5L10.4 -1.7L10.4 -2.2Q10.2 -2.5 10.2 -2.8L10 -2.5L10.2 -2.3L9.4 -2.2Q9.4 -2.3 9.3 -2.3Q9.3 -2.4 9.4 -2.4Q9.3 -2.7 9.3 -3.2L9.2 -3.4L9.1 -3.4L9.1 -3.5Q9.1 -3.5 9 -3.5Q8.9 -3.5 8.9 -3.5L8.7 -4.1Q8.7 -4.1 8.7 -4.1Q8.6 -4.2 8.6 -4.2Q8.6 -3.1 8.6 -2.6Q8.7 -2.4 8.6 -2.2Q8.6 -2 8.6 -1.9Q8.6 -1.8 8.5 -1.8Q8.4 -1.8 8.2 -1.8Q8.1 -1.9 8 -1.8L7.9 -1.9Q7.9 -2.7 7.8 -3L7.9 -3.3Q7.6 -3.3 7.8 -3.2Q7.7 -3 7.7 -2.7Q7.8 -2.5 7.7 -2.5L7.6 -2.1Q7.4 -2 7.5 -1.8Q7.5 -1.7 7.5 -1.6L7.4 -1.6Q7.3 -1.6 7.1 -1.7Q6.9 -1.7 6.8 -1.7Q6.8 -1.9 6.7 -1.9L5.8 -7.6Q5.3 -11.2 4.1 -19.5Q2.9 -27.8 3 -28.1L3 -28.8L3 -28.9L2.9 -29Q2.9 -29.4 3 -29.5L2.9 -29.5L3 -29.7Q3 -29.6 3.1 -29.6Q3.2 -29.6 3.2 -29.7Q3.5 -29.7 3.5 -29.7L3.5 -29.6Q3.6 -29.6 3.8 -29.4Q3.7 -29.3 3.8 -29.2L3.8 -29.2Q4 -29.5 4 -29.7Q4 -29.7 4 -29.8Q4 -29.9 4.1 -29.9L4.3 -29.9L4.6 -29.9L4.7 -29.6Q4.7 -29.9 4.8 -30Q4.9 -30.2 4.9 -30Q4.9 -29.9 5.3 -29.9Q5.2 -30 5.3 -30.1Q5.3 -30.2 5.2 -30.3Q5.2 -30.6 5.4 -30.4Q5.5 -30.4 5.5 -30.5Q5.6 -30.6 5.7 -30.6Q5.8 -30.6 5.8 -30.5Q5.9 -30.5 6 -30.2Q6 -30 6.1 -29.1Q6.2 -28.3 6.3 -28.2L6.3 -28.1Q6.3 -28.4 6.3 -28.5Q6.2 -28.6 6.1 -29.4Q6 -30.3 6 -30.8Q6.1 -30.8 6 -30.8Q6 -30.9 6 -31Q6 -31 6.1 -31L6.8 -31L6.9 -31Q6.9 -28.9 7.1 -28.4Q7.1 -28.4 7.2 -28.4Q7.1 -28.7 7.1 -28.9L7.1 -28.9L7.1 -30.8Q7 -30.8 6.9 -30.9Q6.9 -31 6.9 -31Q6.8 -31 6.9 -31.1Q6.9 -31.2 6.8 -31.3L6.9 -31.2Q7.1 -31.4 7.1 -31.5Q7.3 -31.6 7.3 -31.6Q7.3 -31.5 7.5 -31.5Q7.7 -31.4 7.7 -31.3Q7.7 -31.2 7.7 -31.3Q7.8 -31.3 7.8 -31.3Q7.9 -31.1 7.9 -30.1Q7.9 -29.2 8 -28.8L8.1 -28.7Q8.1 -28.9 8 -28.9L8 -29.5Q8 -31.1 7.9 -31.3Q7.8 -31.3 7.8 -31.4Q7.8 -31.5 7.8 -31.4Q8.1 -31.6 8.1 -31.7Q8.1 -31.7 8.1 -31.7Q8.2 -31.7 8.3 -31.7L8.4 -31.6Q8.5 -31.6 8.5 -31.5Q8.6 -31.3 8.6 -31.4Q8.5 -31.2 8.5 -31Q8.7 -31 8.8 -30.9Q8.9 -30.9 8.9 -31Q8.9 -31 8.9 -31Q8.8 -31.2 8.9 -31.3Q9 -31.4 9 -31.4L9.4 -31.5Q9.5 -31.4 9.5 -31.3Q9.5 -31.2 9.6 -31.3Q9.8 -31.1 9.6 -31Q9.6 -31 9.8 -30.9Q9.9 -30.8 9.9 -30.8L12.2 -14.7L18.1 -29.8Q18.4 -30 18.4 -30L18.9 -30Q18.8 -29.8 18.6 -29.2Q18.4 -28.7 18.5 -28.6Q18.7 -28.9 19 -29.4Q19.4 -30 19.5 -30.2Q19.7 -30.2 19.5 -30Q19.7 -29.7 19.4 -29.5L19.5 -29.5L19.6 -29.5Q20 -29.7 20 -30Q20 -30.2 20.1 -30.2L20.5 -30.1Q20.6 -30.1 20.6 -29.9Q20.5 -29.7 20.5 -29.6Q20.5 -29.5 20.5 -29.2L20.3 -28.9Q20.5 -28.8 20.5 -28.7L20.5 -28.6L20.5 -28.6L20.6 -28.6L21.1 -29.6Q21.2 -29.7 21.4 -29.7L21.7 -29.6Q21.8 -29.5 21.7 -29.5Q21.8 -29.3 21.7 -29.2L21.8 -29.1Q21.9 -29.1 21.9 -29.2Q22 -29.2 22 -29.2Q22.1 -29.2 22.2 -29.2Q22.2 -29.1 22.3 -28.9Q22.4 -28.7 22.4 -28.3Q22.4 -27.9 22.5 -27.6L22.5 -27.7Q22.4 -28.2 22.3 -28.7Q22.3 -29.2 22.4 -29.4Q22.5 -29.5 22.4 -29.5Q22.3 -29.5 22.4 -29.6Q22.4 -29.6 22.5 -29.7L23.1 -29.7L23.2 -29.6L23.2 -28.6L23.3 -28.6L23.3 -29.5L23.2 -29.6Q23.2 -29.7 23.2 -29.7Q23.2 -29.8 23.2 -30L23.2 -29.9L23.4 -30.2L23.5 -30.2Q23.5 -30.2 23.8 -30.2Q24 -30.1 24 -30Q24 -29.9 24.1 -29.9Q24.1 -30 24.2 -30Q24.3 -29.7 24.3 -28.3L24.3 -28.3L24.3 -28.2Q24.3 -29.7 24.3 -30Q24.2 -30 24.2 -30Q24.1 -30.1 24.2 -30Q24.4 -30.2 24.4 -30.3Q24.4 -30.3 24.5 -30.3Q24.5 -30.3 24.6 -30.3L24.8 -30.2Q24.8 -30.2 24.9 -30.1Q24.9 -30 25 -30Q24.8 -29.9 24.8 -29.6Q25.1 -29.6 25.1 -29.5Q25.2 -29.5 25.2 -29.6Q25.3 -29.7 25.2 -29.7Q25.1 -29.9 25.2 -30Q25.3 -30 25.3 -30L25.8 -30.1Q25.8 -30 25.8 -30Q25.8 -29.9 25.9 -30Q26.1 -29.7 25.9 -29.7Q26.1 -29.5 26.1 -29.4L28.6 -12.9L36.1 -33.4Q36.2 -33.7 36.3 -33.7Q36.4 -33.7 36.5 -33.6Q36.6 -33.5 36.7 -33.5Q36.6 -33.3 36.5 -32.8Q36.3 -32.2 36.4 -32.2Q36.6 -32.5 36.9 -33.1Q37.3 -33.6 37.4 -33.8Q37.6 -33.8 37.4 -33.7Q37.6 -33.3 37.4 -33.1L37.4 -33L37.5 -33Q38 -33.3 38 -33.7Q38 -33.8 38.1 -33.8L38.5 -33.8Q38.6 -33.8 38.6 -33.5Q38.5 -33.3 38.5 -33.2Q38.5 -33 38.5 -32.8L38.3 -32.5Q38.5 -32.4 38.5 -32.2Q38.2 -31.6 38.2 -31.3Q38.2 -31.4 38.1 -31.3Q38.1 -31.3 38.1 -31.2Q38.2 -31.2 38.3 -31.3Q38.7 -32.4 39 -33.2Q39.2 -33.3 39.4 -33.3L39.7 -33.2Q39.8 -33.1 39.7 -33Q39.8 -32.9 39.7 -32.8Q39.3 -32.1 39.2 -31.5Q39.1 -31.5 39.1 -31.4Q39.3 -31.3 39.3 -31.5Q39.3 -32 39.5 -32.1L39.8 -32.5L39.9 -32.4Q40 -32.2 40.2 -32.2Q40.2 -32.2 40.2 -32.2Q40.2 -32.1 40.2 -32.1Q40 -31.7 40 -31.5L40 -31.3Q40.1 -31.2 40.1 -31.3Q40.2 -31.3 40.2 -31.2Q40.2 -31.2 40.2 -31Q40.2 -30.7 40.2 -30.5Q40.1 -30.3 40 -30.2Q40.2 -30 40.2 -30.2Q40.3 -30.5 40.5 -31Q40.6 -31.5 40.8 -31.9Q41 -32 41 -32Q41.2 -32 41.2 -32.2Q41.2 -32.2 41.2 -32.2Q41.2 -32.2 41.3 -32.2Q41.7 -32 41.7 -32Q41.7 -32 41.7 -31.9Q41.7 -31.8 41.7 -31.8Q41.6 -31.5 41.5 -31.3Q41.4 -31.2 41.3 -31L41.4 -30.8Q41.4 -30.8 41.4 -30.8Q41.5 -30.8 41.5 -30.8Q41.6 -31.2 41.8 -31.5L41.9 -31.5Q42.2 -31.7 42.4 -31.9Q42.4 -31.7 42.5 -31.6Q42.6 -31.5 42.6 -31.4zM36.7 -33.6L36.7 -33.7L36.7 -33.6zM36.7 -33.5L36.7 -33.5L36.7 -33.6L36.8 -33.5L36.7 -33.5zM18.9 -29.9L18.9 -30L18.9 -30L18.9 -29.9zM21.6 -29Q21.5 -28.7 21.5 -28.6L21.5 -28.6Q21.5 -28.6 21.7 -28.7Q21.6 -28.8 21.6 -28.9Q21.7 -28.9 21.6 -29zM7.2 -28.4L7.2 -28.4Q7.1 -28.3 7.1 -28.2L7.2 -28.4zM23.2 -27.7L23.3 -27.3L23.3 -27.4L23.3 -27.6L23.3 -27.6L23.3 -27.8Q23.3 -27.7 23.2 -27.7zM10.9 -3.9L10.9 -4L10.9 -4L10.9 -3.9zM10 -3L10 -3Q9.9 -3 9.9 -3Q9.9 -3 10 -3zM27.5 -2.1L27.5 -2.2Q27.5 -2.2 27.5 -2.1Q27.5 -2.1 27.5 -2.1zM27.5 -1.9L27.5 -1.9L27.5 -1.9L27.5 -2L27.5 -1.9zM26.7 -1.4L26.7 -1.4Q26.6 -1.4 26.7 -1.4M77.9 -18.4L77.9 -18.2L75.8 -5.1Q75.8 -4.9 75.6 -4.9Q75.5 -4.8 75.3 -4.7Q75.2 -4.8 75.1 -4.8Q75.1 -4.8 75.1 -4.7Q75.1 -4.6 75.1 -4.6Q75.1 -4.5 75 -4.4Q74.8 -4.5 74.6 -4.2L74.3 -4.4Q74.1 -4.7 74.3 -5.2Q74.1 -5.2 74.1 -5Q73.9 -4.5 73.9 -4.2Q74.1 -4.1 73.9 -4.1Q73.8 -4.2 73.6 -4.1Q73.5 -4 73.4 -3.9Q73 -3.9 73.2 -4Q73.2 -4.5 73.3 -4.7Q73 -4.7 73 -4.6L72.8 -4.5L72.8 -4.3Q72.8 -4.3 72.8 -4.3Q72.8 -4.2 72.8 -4.2L72.9 -4.2L73 -3.5L72.9 -3.5Q72.7 -3.3 72.5 -3.3Q72.3 -3.2 72.1 -3.2Q72.1 -3.2 72 -3.2Q72 -3.2 72 -3.2L72 -2.8L70.3 -2.4Q70.3 -2.2 70.4 -2.1Q70.5 -2 70.5 -2.1L72.8 -2.6Q72.9 -2.6 73 -2.5Q73 -2.5 73.2 -2.5L73.5 -2.5Q73.5 -2.6 73.6 -2.5Q73.6 -2.5 73.5 -2.5L73.5 -1.9Q73.5 -1.8 73.5 -1.7Q73.4 -1.7 73.3 -1.7L72.2 -1.4Q72.2 -1.4 55.3 0.6L55.1 0.6Q55.1 0.6 54.9 0.6Q54.8 0.6 54.7 0.7Q54.6 0.7 54.6 0.6Q54.6 0.6 54.5 0.5Q54.5 0.4 54.4 0.4Q54.5 0.2 54.4 0L54.5 0Q54.7 -0.1 54.7 -0.2L55 -0.3L55 -0.2Q54.8 -0.6 54.5 -0.3Q54.4 -0.3 54.3 -0.4L54.2 -0.5L54.2 -0.5L54.2 -0.6Q54.2 -0.6 54.1 -0.7Q54.1 -0.8 54.2 -0.9Q54.2 -0.9 54.2 -0.9Q54.2 -0.9 54.2 -0.9Q54.2 -0.9 54.3 -1Q54.3 -1 54.4 -1Q54.2 -1.4 54 -1.4Q53.8 -1.6 54 -1.6L54.1 -1.9Q54 -1.9 54.1 -1.9Q54.2 -1.9 54.3 -2L54.3 -2.4Q54.3 -2.7 54.5 -2.7Q54.9 -2.9 55 -3.1L54.9 -3.1Q54.9 -2.9 54.7 -2.9L54.1 -2.7Q54 -2.6 53.9 -2.6Q53.8 -2.7 53.8 -2.7Q53.8 -2.7 53.8 -2.7L53.5 -3.2Q53.7 -3.3 53.7 -3.3Q53.9 -3.4 54.1 -3.5Q54.3 -3.5 54.5 -3.6Q54.5 -3.8 54.8 -3.8L54.9 -3.8Q54.9 -4 54.7 -3.9Q54.4 -3.8 54.2 -3.5Q54.2 -3.5 54.1 -3.5Q54 -3.5 54 -3.5L53.6 -3.5L53.5 -3.5Q53.4 -3.3 53.3 -3.4L52.9 -3.6Q52.8 -3.6 52.8 -3.7Q52.8 -3.8 53 -3.9Q53.1 -4 53.1 -4.2L53.2 -4.2Q53.3 -4.3 53.5 -4.3Q53.7 -4.4 54 -4.5Q54 -4.5 54.2 -4.5Q54.4 -4.6 54.5 -4.7L53.9 -4.6Q53.8 -4.6 53.1 -4.2L52.9 -4.2Q52.9 -4.2 52.7 -4.5L52.6 -4.6L52.6 -4.9Q52.6 -5.2 53 -5.2Q53.1 -5.2 53.1 -5.3Q53.2 -5.4 53.2 -5.4Q53.4 -5.4 53.5 -5.7Q53.3 -5.7 53.2 -5.6Q53 -5.4 52.9 -5.7Q52.8 -5.8 52.7 -5.9Q52.7 -6 52.7 -6.1L53 -6.5Q54.7 -6.8 60 -7.4Q65.4 -8.1 68.9 -8.4L69.8 -13.3L57.6 -11.7L57.4 -11.7Q57.4 -11.6 57.3 -11.6Q57.2 -11.7 57.1 -11.7Q57.1 -11.6 57 -11.4Q57 -11.3 57 -10.9Q56.9 -10.9 56.9 -11.7Q56.9 -11.7 56.7 -11.9Q56.8 -12 56.7 -12.2L56.8 -12.2Q57 -12.3 57 -12.5L57.2 -12.5L57.4 -12.5Q57.1 -12.8 56.8 -12.5L56.6 -12.5Q56.4 -12.5 56.5 -12.6Q56.6 -12.8 56.6 -12.8L56.6 -12.9Q56.6 -12.9 56.5 -13Q56.5 -13.1 56.6 -13.2Q56.5 -13.2 56.5 -13.2Q56.4 -13.2 56.5 -13.2Q56.6 -13.3 56.6 -13.5Q56.6 -13.5 56.4 -13.5Q56.2 -13.8 56.3 -13.8L56.5 -14Q56.5 -14 56.6 -14.2L56.6 -14.5L56.6 -14.6Q56.6 -14.8 56.7 -14.9Q56.7 -14.9 56.7 -14.9Q56.8 -15 56.8 -15L56.6 -15L56.6 -14.6Q56.6 -14.5 56.5 -14.4Q56.4 -14.2 56.3 -14.2L56.3 -14L55.7 -14.1Q55.6 -14.2 55.6 -14.2Q55.5 -14.2 55.6 -14.2Q55.7 -14.3 55.7 -14.5Q55.6 -14.8 55.7 -14.8Q55.7 -14.9 55.7 -15Q55.7 -15.1 55.6 -15.1L55.3 -15.1Q55.3 -15.3 55.3 -15.8Q55.3 -15.8 55.3 -15.9Q55.3 -15.9 55.3 -15.9Q55.3 -15.9 55.3 -15.9Q55.3 -16 55.3 -16Q55.3 -16.2 55.4 -16.3L55.3 -16.3L55.3 -16.4L55.3 -16.3Q55.2 -15.8 55.1 -15.3Q55 -14.9 54.9 -14.5Q55 -14.3 54.8 -14.2Q54.8 -14.1 54.8 -14Q54.8 -13.9 54.7 -13.8Q54.6 -13.8 54.5 -13.8Q54.3 -13.9 54.2 -14Q54.2 -14 54.1 -14.1L54 -14.2Q54.2 -14.7 54.2 -15.1Q54.2 -15.1 54.2 -15.3Q54.2 -15.3 54.1 -15.3Q54.1 -15.3 54.2 -15.2Q54.1 -15 54 -14.9Q54 -14.7 53.8 -14.6Q53.9 -14.5 53.8 -14.3Q53.6 -14.2 53.3 -13.8Q53 -14.2 52.8 -14.2Q52.8 -14.2 52.8 -14.3Q52.8 -14.4 52.8 -14.4Q53 -16.3 53.8 -21.2Q54.6 -26.2 54.8 -26.5Q54.9 -26.9 54.9 -27.1Q54.9 -27.1 54.9 -27.1Q55 -27.1 55 -27.1Q55 -27.2 54.9 -27.2Q54.9 -27.5 55 -27.6L55 -27.7L55.2 -27.9L55.4 -27.8L55.7 -27.8L55.8 -27.8Q55.8 -27.5 56 -27.4Q55.9 -27.4 55.9 -27.3Q55.8 -27.3 55.8 -27.2L56 -27.2Q56.1 -27.4 56.2 -27.7Q56.4 -27.7 56.4 -27.8L56.6 -27.8L56.7 -27.8L56.6 -27.9Q56.4 -27.9 56.5 -27.9L56.7 -28.4L56.8 -28.4L57.6 -28.7Q57.6 -28.7 58 -29Q57.9 -29 57.7 -28.9Q57.6 -28.8 57.5 -28.8Q57.2 -28.7 56.7 -28.4L56.6 -28.4Q56.6 -28.5 56.3 -28.7Q56.3 -28.7 56.3 -28.9L56.3 -29.1Q56.3 -29.4 56.6 -29.4Q56.7 -29.4 56.7 -29.4Q56.8 -29.5 56.8 -29.5Q57 -29.5 57.1 -29.8Q56.9 -29.8 56.8 -29.7Q56.6 -29.6 56.6 -29.8Q56.5 -29.9 56.5 -30Q56.4 -30.2 56.3 -30.3Q56.5 -30.3 56.6 -30.5Q75.9 -33.2 76 -32.9Q76.1 -33 76.5 -33Q76.8 -33 76.9 -33.1Q76.9 -33 77 -32.8Q77 -32.7 77.1 -32.7Q77.1 -32.6 76.3 -32.4Q75.5 -32.1 75.6 -32L75.8 -32Q76 -32 76.4 -32Q76.9 -32.1 77.1 -32Q77.2 -31.9 76.5 -31.7Q75.8 -31.5 75.5 -31.4L75.9 -31.2Q76 -31.2 76.1 -31.2Q76.1 -31.2 76.1 -31.2Q76.3 -31.2 76.5 -31.4Q76.8 -31.5 76.9 -31.5Q77.1 -31.6 77.1 -31.5Q77.2 -31.4 77.2 -31.2L77.2 -30.9L77.2 -30.7Q77.1 -30.5 76.5 -30.4Q76.4 -30.3 76.3 -30.2Q76.2 -30.2 76.1 -30.2Q76.1 -30 76 -29.8Q75.7 -29.7 74.8 -29.5Q74.8 -29.5 74.8 -29.5Q74.8 -29.5 74.8 -29.5Q74.8 -29.4 74.8 -29.3Q74.8 -29.3 74.8 -29.4Q76.2 -29.7 77.2 -30Q77.4 -30 77.4 -29.9Q77.4 -29.8 77.4 -29.7Q77.4 -29.5 77.5 -29.5Q77.5 -29.5 77.4 -29.3Q77 -29.2 77 -29.1Q75.9 -28.7 75.5 -28.6L75.5 -28.5Q75.9 -28.5 76.3 -28.7Q76.4 -28.7 76.6 -28.7Q76.7 -28.8 76.9 -28.7L76.9 -28.7L77 -28.1L76.9 -28.1Q76.8 -27.9 76.2 -27.7Q76.2 -27.7 76.1 -27.7Q76.1 -27.7 76.1 -27.7L76.1 -27.4L74.6 -27Q74.6 -26.9 74.6 -26.8Q74.7 -26.6 74.8 -26.7L76.9 -27.2Q76.9 -27.2 77 -27.2Q77.1 -27.1 77.2 -27.1L77.4 -27.1Q77.5 -27.2 77.5 -27.2Q77.6 -27.1 77.5 -27.1L77.5 -26.6Q77.5 -26.5 77.4 -26.3Q77.4 -26.2 77.3 -26.2L76.4 -26.1Q76.3 -26 62.2 -24.2L61.5 -19.4Q74.1 -21 74.1 -20.8Q74.3 -20.9 74.6 -20.9Q74.9 -21 75.1 -21Q75.1 -20.9 75.1 -20.7Q75.1 -20.6 75.2 -20.6Q75.2 -20.5 74.4 -20.3Q73.6 -20 73.8 -19.9L73.9 -19.9Q74.1 -19.9 74.5 -19.9Q75 -20 75.2 -19.9Q75.3 -19.8 74.6 -19.6Q73.9 -19.4 73.6 -19.3L74.1 -19.2L74.2 -19.1Q74.3 -19.2 74.3 -19.2L74.4 -19.2L74.6 -19.2Q75 -19.4 75.1 -19.4Q75.3 -19.6 75.3 -19.4L75.6 -19.6L75.7 -19.7Q75.7 -19.7 75.9 -19.5Q76.1 -19.4 76.1 -19.2L76.2 -19.2Q76.1 -19 75.9 -18.2Q75.7 -17.4 75.7 -17.1Q75.7 -17.1 75.8 -17Q75.8 -16.9 75.8 -16.8L75.8 -16.8Q75.8 -17 75.7 -17.1Q75.9 -17.5 76 -18.2Q76.2 -18.9 76.3 -19.2L76.2 -19.2L76.6 -19.5L76.9 -19.4L76.9 -19.2L76.9 -19.1Q76.9 -19 76.9 -18.8L76.9 -18.4Q77.2 -18.6 77.2 -18.6Q77.2 -18.9 77.2 -18.9Q77.3 -18.9 77.4 -19L77.8 -19L77.9 -18.7Q78 -18.7 78 -18.6Q78 -18.5 77.9 -18.4zM60.8 -28.2Q60.8 -28.2 60.8 -28.2Q60.8 -28.2 60.8 -28.2zM58.2 -28.1Q58.1 -28.1 58 -27.9L58.1 -27.9L58.1 -27.9L58.3 -28L58.4 -28Q58.4 -28.2 58.2 -28.1zM57.1 -27.8L57 -27.6L56.9 -27.4Q57.1 -27.5 57.2 -27.6Q57.3 -27.7 57.3 -27.8L57.2 -27.8L57.1 -27.8zM57.6 -27.8L57.4 -27.8L57.4 -27.7L57.4 -27.6L57.7 -27.8L57.6 -27.8zM76.2 -19.2Q76.2 -19.2 76.2 -19.2Q76.2 -19.2 76.2 -19.2zM74.9 -18.4L74.8 -17.7Q74.9 -17.7 75 -17.8L75.1 -18.4L74.9 -18.4zM73.9 -17.6L73.9 -17.5L74.1 -17.5L74.1 -17.7Q74.1 -17.6 73.9 -17.6zM74.7 -16.8L74.8 -16.8Q74.8 -16.8 74.7 -16.8Q74.6 -16.8 74.6 -16.7L74.8 -16.6L74.8 -16.6Q74.9 -16.6 74.9 -16.7L74.8 -16.8L74.7 -16.8zM73.2 -5.5Q73.2 -6.3 73.3 -6.6L73.3 -6.7Q73.3 -6.8 73.2 -6.7Q73.2 -6.7 73.1 -6.7Q73.2 -6.6 73.2 -6.4L73.2 -6.3L73.2 -6.3Q73.1 -6 72.9 -6Q72.9 -5.6 72.8 -5.5L73.2 -5.5zM72 -5.2L72.1 -5.8L72 -5.8L72 -5.5Q72 -5.4 71.9 -5.3Q71.8 -5.2 71.8 -5.2L72 -5.2zM70.7 -4.8L71.4 -5L71.2 -5L71.1 -5.1L70.6 -5Q70.6 -5 70.6 -5Q70.5 -5 70.5 -5Q70.5 -4.7 70.7 -4.8zM71.9 -4.2L72 -4.2L71.4 -4.1Q71.4 -4.1 71.3 -4.1Q71.3 -4 71.3 -4Q71.3 -3.9 71.3 -3.9Q71.4 -3.9 71.4 -4Q71.7 -4 72 -4.1Q71.9 -4.1 71.9 -4.1Q71.8 -4.2 71.9 -4.2M114.9 -18.4L114.9 -18.2L112.8 -5.1Q112.8 -4.9 112.6 -4.9Q112.5 -4.8 112.3 -4.7Q112.2 -4.8 112.1 -4.8Q112.1 -4.8 112.1 -4.7Q112.1 -4.6 112.1 -4.6Q112.1 -4.5 112 -4.4Q111.8 -4.5 111.6 -4.2L111.3 -4.4Q111.1 -4.7 111.3 -5.2Q111.1 -5.2 111.1 -5Q110.9 -4.5 110.9 -4.2Q111.1 -4.1 110.9 -4.1Q110.8 -4.2 110.6 -4.1Q110.5 -4 110.4 -3.9Q110 -3.9 110.2 -4Q110.2 -4.5 110.3 -4.7Q110 -4.7 110 -4.6L109.8 -4.5L109.8 -4.3Q109.8 -4.3 109.8 -4.3Q109.8 -4.2 109.8 -4.2L109.9 -4.2L110 -3.5L109.9 -3.5Q109.7 -3.3 109.5 -3.3Q109.3 -3.2 109.1 -3.2Q109.1 -3.2 109 -3.2Q109 -3.2 109 -3.2L109 -2.8L107.3 -2.4Q107.3 -2.2 107.4 -2.1Q107.5 -2 107.5 -2.1L109.8 -2.6Q109.9 -2.6 110 -2.5Q110 -2.5 110.2 -2.5L110.5 -2.5Q110.5 -2.6 110.6 -2.5Q110.6 -2.5 110.5 -2.5L110.5 -1.9Q110.5 -1.8 110.5 -1.7Q110.4 -1.7 110.3 -1.7L109.2 -1.4Q109.2 -1.4 92.3 0.6L92.1 0.6Q92.1 0.6 91.9 0.6Q91.8 0.6 91.7 0.7Q91.6 0.7 91.6 0.6Q91.6 0.6 91.5 0.5Q91.5 0.4 91.4 0.4Q91.5 0.2 91.4 0L91.5 0Q91.7 -0.1 91.7 -0.2L92 -0.3L92 -0.2Q91.8 -0.6 91.5 -0.3Q91.4 -0.3 91.3 -0.4L91.2 -0.5L91.2 -0.5L91.2 -0.6Q91.2 -0.6 91.1 -0.7Q91.1 -0.8 91.2 -0.9Q91.2 -0.9 91.2 -0.9Q91.2 -0.9 91.2 -0.9Q91.2 -0.9 91.3 -1Q91.3 -1 91.4 -1Q91.2 -1.4 91 -1.4Q90.8 -1.6 91 -1.6L91.1 -1.9Q91 -1.9 91.1 -1.9Q91.2 -1.9 91.3 -2L91.3 -2.4Q91.3 -2.7 91.5 -2.7Q91.9 -2.9 92 -3.1L91.9 -3.1Q91.9 -2.9 91.7 -2.9L91.1 -2.7Q91 -2.6 90.9 -2.6Q90.8 -2.7 90.8 -2.7Q90.8 -2.7 90.8 -2.7L90.5 -3.2Q90.7 -3.3 90.7 -3.3Q90.9 -3.4 91.1 -3.5Q91.3 -3.5 91.5 -3.6Q91.5 -3.8 91.8 -3.8L91.9 -3.8Q91.9 -4 91.7 -3.9Q91.4 -3.8 91.2 -3.5Q91.2 -3.5 91.1 -3.5Q91 -3.5 91 -3.5L90.6 -3.5L90.5 -3.5Q90.4 -3.3 90.3 -3.4L89.9 -3.6Q89.8 -3.6 89.8 -3.7Q89.8 -3.8 90 -3.9Q90.1 -4 90.1 -4.2L90.2 -4.2Q90.3 -4.3 90.5 -4.3Q90.7 -4.4 91 -4.5Q91 -4.5 91.2 -4.5Q91.4 -4.6 91.5 -4.7L90.9 -4.6Q90.8 -4.6 90.1 -4.2L89.9 -4.2Q89.9 -4.2 89.7 -4.5L89.6 -4.6L89.6 -4.9Q89.6 -5.2 90 -5.2Q90.1 -5.2 90.1 -5.3Q90.2 -5.4 90.2 -5.4Q90.4 -5.4 90.5 -5.7Q90.3 -5.7 90.2 -5.6Q90 -5.4 89.9 -5.7Q89.8 -5.8 89.7 -5.9Q89.7 -6 89.7 -6.1L90 -6.5Q91.7 -6.8 97 -7.4Q102.4 -8.1 105.9 -8.4L106.8 -13.3L94.6 -11.7L94.4 -11.7Q94.4 -11.6 94.3 -11.6Q94.2 -11.7 94.1 -11.7Q94.1 -11.6 94 -11.4Q94 -11.3 94 -10.9Q93.9 -10.9 93.9 -11.7Q93.9 -11.7 93.7 -11.9Q93.8 -12 93.7 -12.2L93.8 -12.2Q94 -12.3 94 -12.5L94.2 -12.5L94.4 -12.5Q94.1 -12.8 93.8 -12.5L93.6 -12.5Q93.4 -12.5 93.5 -12.6Q93.6 -12.8 93.6 -12.8L93.6 -12.9Q93.6 -12.9 93.5 -13Q93.5 -13.1 93.6 -13.2Q93.5 -13.2 93.5 -13.2Q93.4 -13.2 93.5 -13.2Q93.6 -13.3 93.6 -13.5Q93.6 -13.5 93.4 -13.5Q93.2 -13.8 93.3 -13.8L93.5 -14Q93.5 -14 93.6 -14.2L93.6 -14.5L93.6 -14.6Q93.6 -14.8 93.7 -14.9Q93.7 -14.9 93.7 -14.9Q93.8 -15 93.8 -15L93.6 -15L93.6 -14.6Q93.6 -14.5 93.5 -14.4Q93.4 -14.2 93.3 -14.2L93.3 -14L92.7 -14.1Q92.6 -14.2 92.6 -14.2Q92.5 -14.2 92.6 -14.2Q92.7 -14.3 92.7 -14.5Q92.6 -14.8 92.7 -14.8Q92.7 -14.9 92.7 -15Q92.7 -15.1 92.6 -15.1L92.3 -15.1Q92.3 -15.3 92.3 -15.8Q92.3 -15.8 92.3 -15.9Q92.3 -15.9 92.3 -15.9Q92.3 -15.9 92.3 -15.9Q92.3 -16 92.3 -16Q92.3 -16.2 92.4 -16.3L92.3 -16.3L92.3 -16.4L92.3 -16.3Q92.2 -15.8 92.1 -15.3Q92 -14.9 91.9 -14.5Q92 -14.3 91.8 -14.2Q91.8 -14.1 91.8 -14Q91.8 -13.9 91.7 -13.8Q91.6 -13.8 91.5 -13.8Q91.3 -13.9 91.2 -14Q91.2 -14 91.1 -14.1L91 -14.2Q91.2 -14.7 91.2 -15.1Q91.2 -15.1 91.2 -15.3Q91.2 -15.3 91.1 -15.3Q91.1 -15.3 91.2 -15.2Q91.1 -15 91 -14.9Q91 -14.7 90.8 -14.6Q90.9 -14.5 90.8 -14.3Q90.6 -14.2 90.3 -13.8Q90 -14.2 89.8 -14.2Q89.8 -14.2 89.8 -14.3Q89.8 -14.4 89.8 -14.4Q90 -16.3 90.8 -21.2Q91.6 -26.2 91.8 -26.5Q91.9 -26.9 91.9 -27.1Q91.9 -27.1 91.9 -27.1Q92 -27.1 92 -27.1Q92 -27.2 91.9 -27.2Q91.9 -27.5 92 -27.6L92 -27.7L92.2 -27.9L92.4 -27.8L92.7 -27.8L92.8 -27.8Q92.8 -27.5 93 -27.4Q92.9 -27.4 92.9 -27.3Q92.8 -27.3 92.8 -27.2L93 -27.2Q93.1 -27.4 93.2 -27.7Q93.4 -27.7 93.4 -27.8L93.6 -27.8L93.7 -27.8L93.6 -27.9Q93.4 -27.9 93.5 -27.9L93.7 -28.4L93.8 -28.4L94.6 -28.7Q94.6 -28.7 95 -29Q94.9 -29 94.7 -28.9Q94.6 -28.8 94.5 -28.8Q94.2 -28.7 93.7 -28.4L93.6 -28.4Q93.6 -28.5 93.3 -28.7Q93.3 -28.7 93.3 -28.9L93.3 -29.1Q93.3 -29.4 93.6 -29.4Q93.7 -29.4 93.7 -29.4Q93.8 -29.5 93.8 -29.5Q94 -29.5 94.1 -29.8Q93.9 -29.8 93.8 -29.7Q93.6 -29.6 93.6 -29.8Q93.5 -29.9 93.5 -30Q93.4 -30.2 93.3 -30.3Q93.5 -30.3 93.6 -30.5Q112.9 -33.2 113 -32.9Q113.1 -33 113.5 -33Q113.8 -33 113.9 -33.1Q113.9 -33 114 -32.8Q114 -32.7 114.1 -32.7Q114.1 -32.6 113.3 -32.4Q112.5 -32.1 112.6 -32L112.8 -32Q113 -32 113.4 -32Q113.9 -32.1 114.1 -32Q114.2 -31.9 113.5 -31.7Q112.8 -31.5 112.5 -31.4L112.9 -31.2Q113 -31.2 113.1 -31.2Q113.1 -31.2 113.1 -31.2Q113.3 -31.2 113.5 -31.4Q113.8 -31.5 113.9 -31.5Q114.1 -31.6 114.1 -31.5Q114.2 -31.4 114.2 -31.2L114.2 -30.9L114.2 -30.7Q114.1 -30.5 113.5 -30.4Q113.4 -30.3 113.3 -30.2Q113.2 -30.2 113.1 -30.2Q113.1 -30 113 -29.8Q112.7 -29.7 111.8 -29.5Q111.8 -29.5 111.8 -29.5Q111.8 -29.5 111.8 -29.5Q111.8 -29.4 111.8 -29.3Q111.8 -29.3 111.8 -29.4Q113.2 -29.7 114.2 -30Q114.4 -30 114.4 -29.9Q114.4 -29.8 114.4 -29.7Q114.4 -29.5 114.5 -29.5Q114.5 -29.5 114.4 -29.3Q114 -29.2 114 -29.1Q112.9 -28.7 112.5 -28.6L112.5 -28.5Q112.9 -28.5 113.3 -28.7Q113.4 -28.7 113.6 -28.7Q113.7 -28.8 113.9 -28.7L113.9 -28.7L114 -28.1L113.9 -28.1Q113.8 -27.9 113.2 -27.7Q113.2 -27.7 113.1 -27.7Q113.1 -27.7 113.1 -27.7L113.1 -27.4L111.6 -27Q111.6 -26.9 111.6 -26.8Q111.7 -26.6 111.8 -26.7L113.9 -27.2Q113.9 -27.2 114 -27.2Q114.1 -27.1 114.2 -27.1L114.4 -27.1Q114.5 -27.2 114.5 -27.2Q114.6 -27.1 114.5 -27.1L114.5 -26.6Q114.5 -26.5 114.4 -26.3Q114.4 -26.2 114.3 -26.2L113.4 -26.1Q113.3 -26 99.2 -24.2L98.5 -19.4Q111.1 -21 111.1 -20.8Q111.3 -20.9 111.6 -20.9Q111.9 -21 112.1 -21Q112.1 -20.9 112.1 -20.7Q112.1 -20.6 112.2 -20.6Q112.2 -20.5 111.4 -20.3Q110.6 -20 110.8 -19.9L110.9 -19.9Q111.1 -19.9 111.5 -19.9Q112 -20 112.2 -19.9Q112.3 -19.8 111.6 -19.6Q110.9 -19.4 110.6 -19.3L111.1 -19.2L111.2 -19.1Q111.3 -19.2 111.3 -19.2L111.4 -19.2L111.6 -19.2Q112 -19.4 112.1 -19.4Q112.3 -19.6 112.3 -19.4L112.6 -19.6L112.7 -19.7Q112.7 -19.7 112.9 -19.5Q113.1 -19.4 113.1 -19.2L113.2 -19.2Q113.1 -19 112.9 -18.2Q112.7 -17.4 112.7 -17.1Q112.7 -17.1 112.8 -17Q112.8 -16.9 112.8 -16.8L112.8 -16.8Q112.8 -17 112.7 -17.1Q112.9 -17.5 113 -18.2Q113.2 -18.9 113.3 -19.2L113.2 -19.2L113.6 -19.5L113.9 -19.4L113.9 -19.2L113.9 -19.1Q113.9 -19 113.9 -18.8L113.9 -18.4Q114.2 -18.6 114.2 -18.6Q114.2 -18.9 114.2 -18.9Q114.3 -18.9 114.4 -19L114.8 -19L114.9 -18.7Q115 -18.7 115 -18.6Q115 -18.5 114.9 -18.4zM97.8 -28.2Q97.8 -28.2 97.8 -28.2Q97.8 -28.2 97.8 -28.2zM95.2 -28.1Q95.1 -28.1 95 -27.9L95.1 -27.9L95.1 -27.9L95.3 -28L95.4 -28Q95.4 -28.2 95.2 -28.1zM94.1 -27.8L94 -27.6L93.9 -27.4Q94.1 -27.5 94.2 -27.6Q94.3 -27.7 94.3 -27.8L94.2 -27.8L94.1 -27.8zM94.6 -27.8L94.4 -27.8L94.4 -27.7L94.4 -27.6L94.7 -27.8L94.6 -27.8zM113.2 -19.2Q113.2 -19.2 113.2 -19.2Q113.2 -19.2 113.2 -19.2zM111.9 -18.4L111.8 -17.7Q111.9 -17.7 112 -17.8L112.1 -18.4L111.9 -18.4zM110.9 -17.6L110.9 -17.5L111.1 -17.5L111.1 -17.7Q111.1 -17.6 110.9 -17.6zM111.7 -16.8L111.8 -16.8Q111.8 -16.8 111.7 -16.8Q111.6 -16.8 111.6 -16.7L111.8 -16.6L111.8 -16.6Q111.9 -16.6 111.9 -16.7L111.8 -16.8L111.7 -16.8zM110.2 -5.5Q110.2 -6.3 110.3 -6.6L110.3 -6.7Q110.3 -6.8 110.2 -6.7Q110.2 -6.7 110.1 -6.7Q110.2 -6.6 110.2 -6.4L110.2 -6.3L110.2 -6.3Q110.1 -6 109.9 -6Q109.9 -5.6 109.8 -5.5L110.2 -5.5zM109 -5.2L109.1 -5.8L109 -5.8L109 -5.5Q109 -5.4 108.9 -5.3Q108.8 -5.2 108.8 -5.2L109 -5.2zM107.7 -4.8L108.4 -5L108.2 -5L108.1 -5.1L107.6 -5Q107.6 -5 107.6 -5Q107.5 -5 107.5 -5Q107.5 -4.7 107.7 -4.8zM108.9 -4.2L109 -4.2L108.4 -4.1Q108.4 -4.1 108.3 -4.1Q108.3 -4 108.3 -4Q108.3 -3.9 108.3 -3.9Q108.4 -3.9 108.4 -4Q108.7 -4 109 -4.1Q108.9 -4.1 108.9 -4.1Q108.8 -4.2 108.9 -4.2"
                              style="" fill="#158bff" id="pathSl6olwdtz46j"/>
                    </g>
                    <g id="nameDefaultGroup">
                        <path d="M42.6 -31.4L42.6 -31.3L42.2 -30L31.8 -1.5L31.8 -1.2Q31.6 -1.2 31.6 -1L31.5 -0.9Q31.5 -0.9 31.6 -0.9L31.5 -0.7Q31.5 -0.6 31.4 -0.6Q31.4 -0.6 31.3 -0.6L31.3 -0.4Q31.3 -0.3 31.2 -0.4L30.8 -0.5Q30.8 -0.5 30.7 -0.7L30.7 -0.8L30.8 -0.9L30.8 -1.1Q30.7 -1.1 30.6 -1Q30.5 -0.9 30.5 -0.9L30.3 -0.9L30.2 -0.9L30 -0.9L29.7 -1L29.6 -1.1L29.7 -1.2Q29.6 -1.2 29.5 -1.2Q29.5 -1.2 29.5 -1.1Q29.2 -1.2 29.2 -1.2Q29.3 -1.4 29.2 -1.5Q29 -1.3 29 -1.2Q28.9 -1 28.7 -1.1Q28.7 -1.2 28.4 -1.2Q28.4 -1.4 28.4 -1.4Q28.4 -1.5 28.4 -1.5Q28.7 -1.6 28.4 -1.9Q28.4 -1.9 28.4 -1.9L28.3 -1.9L28.2 -1.7Q28.2 -1.6 28.1 -1.5Q28.1 -1.5 28.1 -1.4L27.9 -1.2L27.9 -1.2Q27.7 -1.2 27.6 -1.3Q27.6 -1.4 27.5 -1.4L27.4 -1.5L27.5 -1.8Q27.3 -1.6 27.3 -1.6Q27.3 -1.6 27.3 -1.5Q27.4 -1.5 27.4 -1.5Q27.4 -1.4 27.3 -1.4Q27.1 -1.3 27 -1.4Q26.9 -1.4 26.8 -1.4L26.7 -1.4L26.6 -1.4L26.4 -1.4L26.4 -1.6L26.4 -1.7Q26.4 -1.7 26.4 -1.8Q26.3 -1.7 26.1 -1.7L25.7 -1.7L25.7 -1.9L25.7 -2.1L25.5 -2.1Q25.4 -2.2 25.4 -2.2Q25.3 -2.2 25.4 -2.2Q25.4 -2.4 25.3 -2.4Q25.3 -2.6 25 -2.5L24.8 -2.7Q24.8 -2.9 24.9 -2.9Q25.2 -2.9 25.1 -3.2L25.1 -3.3L25.1 -3.4L25 -3.4Q24.8 -3.7 24.8 -4.1Q24.7 -4.5 24.7 -4.6Q24.7 -4.7 24.6 -4.4Q24.8 -3.5 24.6 -2.5Q24.8 -2.2 24.7 -2Q24.7 -1.9 24.6 -1.7Q24.6 -1.7 24.5 -1.7Q24.4 -1.7 24.3 -1.7Q24.1 -1.7 24 -1.7L24 -1.8Q24 -2.5 23.9 -2.9Q24 -3 24 -3.2Q23.6 -3.2 23.8 -3Q23.8 -2.9 23.8 -2.6Q23.8 -2.4 23.7 -2.3L23.6 -1.9Q23.4 -1.9 23.4 -1.7Q23.5 -1.5 23.5 -1.4L23.4 -1.4Q23.2 -1.4 23.1 -1.5Q23 -1.6 22.8 -1.6Q22.9 -1.7 22.8 -1.7L20.5 -17.4L15 -3.2Q15 -3 14.9 -2.9Q14.8 -2.8 14.8 -2.7L14.7 -2.6Q14.7 -2.5 14.8 -2.5L14.6 -2.4Q14.6 -2.3 14.6 -2.3Q14.5 -2.2 14.5 -2.2L14.5 -2.1Q14.5 -1.9 14.3 -2.1L14 -2.2Q14 -2.2 13.8 -2.4L13.8 -2.5L13.9 -2.6L13.9 -2.7Q13.8 -2.7 13.8 -2.7Q13.7 -2.6 13.6 -2.5L13.5 -2.5L13.3 -2.5L13.2 -2.5L13.2 -2.5Q13 -2.6 12.8 -2.3L12.5 -2.3Q12.4 -2.6 12.4 -3.1L12.2 -2.8L12.2 -2.7L12.3 -2.1Q12.2 -2 12.3 -2Q12.1 -2 12 -1.8Q11.9 -1.7 11.8 -1.6Q11.7 -1.6 11.7 -1.6Q11.6 -1.7 11.6 -1.7Q11.4 -2.2 11.5 -2.7Q11.4 -2.9 11.4 -3.2L11.3 -3L11.2 -2.8L11.2 -2.8L10.9 -2.9L11.1 -1.9Q11.2 -1.7 11 -1.6Q10.9 -1.6 10.8 -1.6Q10.7 -1.7 10.4 -1.5L10.4 -1.7L10.4 -2.2Q10.2 -2.5 10.2 -2.8L10 -2.5L10.2 -2.3L9.4 -2.2Q9.4 -2.3 9.3 -2.3Q9.3 -2.4 9.4 -2.4Q9.3 -2.7 9.3 -3.2L9.2 -3.4L9.1 -3.4L9.1 -3.5Q9.1 -3.5 9 -3.5Q8.9 -3.5 8.9 -3.5L8.7 -4.1Q8.7 -4.1 8.7 -4.1Q8.6 -4.2 8.6 -4.2Q8.6 -3.1 8.6 -2.6Q8.7 -2.4 8.6 -2.2Q8.6 -2 8.6 -1.9Q8.6 -1.8 8.5 -1.8Q8.4 -1.8 8.2 -1.8Q8.1 -1.9 8 -1.8L7.9 -1.9Q7.9 -2.7 7.8 -3L7.9 -3.3Q7.6 -3.3 7.8 -3.2Q7.7 -3 7.7 -2.7Q7.8 -2.5 7.7 -2.5L7.6 -2.1Q7.4 -2 7.5 -1.8Q7.5 -1.7 7.5 -1.6L7.4 -1.6Q7.3 -1.6 7.1 -1.7Q6.9 -1.7 6.8 -1.7Q6.8 -1.9 6.7 -1.9L5.8 -7.6Q5.3 -11.2 4.1 -19.5Q2.9 -27.8 3 -28.1L3 -28.8L3 -28.9L2.9 -29Q2.9 -29.4 3 -29.5L2.9 -29.5L3 -29.7Q3 -29.6 3.1 -29.6Q3.2 -29.6 3.2 -29.7Q3.5 -29.7 3.5 -29.7L3.5 -29.6Q3.6 -29.6 3.8 -29.4Q3.7 -29.3 3.8 -29.2L3.8 -29.2Q4 -29.5 4 -29.7Q4 -29.7 4 -29.8Q4 -29.9 4.1 -29.9L4.3 -29.9L4.6 -29.9L4.7 -29.6Q4.7 -29.9 4.8 -30Q4.9 -30.2 4.9 -30Q4.9 -29.9 5.3 -29.9Q5.2 -30 5.3 -30.1Q5.3 -30.2 5.2 -30.3Q5.2 -30.6 5.4 -30.4Q5.5 -30.4 5.5 -30.5Q5.6 -30.6 5.7 -30.6Q5.8 -30.6 5.8 -30.5Q5.9 -30.5 6 -30.2Q6 -30 6.1 -29.1Q6.2 -28.3 6.3 -28.2L6.3 -28.1Q6.3 -28.4 6.3 -28.5Q6.2 -28.6 6.1 -29.4Q6 -30.3 6 -30.8Q6.1 -30.8 6 -30.8Q6 -30.9 6 -31Q6 -31 6.1 -31L6.8 -31L6.9 -31Q6.9 -28.9 7.1 -28.4Q7.1 -28.4 7.2 -28.4Q7.1 -28.7 7.1 -28.9L7.1 -28.9L7.1 -30.8Q7 -30.8 6.9 -30.9Q6.9 -31 6.9 -31Q6.8 -31 6.9 -31.1Q6.9 -31.2 6.8 -31.3L6.9 -31.2Q7.1 -31.4 7.1 -31.5Q7.3 -31.6 7.3 -31.6Q7.3 -31.5 7.5 -31.5Q7.7 -31.4 7.7 -31.3Q7.7 -31.2 7.7 -31.3Q7.8 -31.3 7.8 -31.3Q7.9 -31.1 7.9 -30.1Q7.9 -29.2 8 -28.8L8.1 -28.7Q8.1 -28.9 8 -28.9L8 -29.5Q8 -31.1 7.9 -31.3Q7.8 -31.3 7.8 -31.4Q7.8 -31.5 7.8 -31.4Q8.1 -31.6 8.1 -31.7Q8.1 -31.7 8.1 -31.7Q8.2 -31.7 8.3 -31.7L8.4 -31.6Q8.5 -31.6 8.5 -31.5Q8.6 -31.3 8.6 -31.4Q8.5 -31.2 8.5 -31Q8.7 -31 8.8 -30.9Q8.9 -30.9 8.9 -31Q8.9 -31 8.9 -31Q8.8 -31.2 8.9 -31.3Q9 -31.4 9 -31.4L9.4 -31.5Q9.5 -31.4 9.5 -31.3Q9.5 -31.2 9.6 -31.3Q9.8 -31.1 9.6 -31Q9.6 -31 9.8 -30.9Q9.9 -30.8 9.9 -30.8L12.2 -14.7L18.1 -29.8Q18.4 -30 18.4 -30L18.9 -30Q18.8 -29.8 18.6 -29.2Q18.4 -28.7 18.5 -28.6Q18.7 -28.9 19 -29.4Q19.4 -30 19.5 -30.2Q19.7 -30.2 19.5 -30Q19.7 -29.7 19.4 -29.5L19.5 -29.5L19.6 -29.5Q20 -29.7 20 -30Q20 -30.2 20.1 -30.2L20.5 -30.1Q20.6 -30.1 20.6 -29.9Q20.5 -29.7 20.5 -29.6Q20.5 -29.5 20.5 -29.2L20.3 -28.9Q20.5 -28.8 20.5 -28.7L20.5 -28.6L20.5 -28.6L20.6 -28.6L21.1 -29.6Q21.2 -29.7 21.4 -29.7L21.7 -29.6Q21.8 -29.5 21.7 -29.5Q21.8 -29.3 21.7 -29.2L21.8 -29.1Q21.9 -29.1 21.9 -29.2Q22 -29.2 22 -29.2Q22.1 -29.2 22.2 -29.2Q22.2 -29.1 22.3 -28.9Q22.4 -28.7 22.4 -28.3Q22.4 -27.9 22.5 -27.6L22.5 -27.7Q22.4 -28.2 22.3 -28.7Q22.3 -29.2 22.4 -29.4Q22.5 -29.5 22.4 -29.5Q22.3 -29.5 22.4 -29.6Q22.4 -29.6 22.5 -29.7L23.1 -29.7L23.2 -29.6L23.2 -28.6L23.3 -28.6L23.3 -29.5L23.2 -29.6Q23.2 -29.7 23.2 -29.7Q23.2 -29.8 23.2 -30L23.2 -29.9L23.4 -30.2L23.5 -30.2Q23.5 -30.2 23.8 -30.2Q24 -30.1 24 -30Q24 -29.9 24.1 -29.9Q24.1 -30 24.2 -30Q24.3 -29.7 24.3 -28.3L24.3 -28.3L24.3 -28.2Q24.3 -29.7 24.3 -30Q24.2 -30 24.2 -30Q24.1 -30.1 24.2 -30Q24.4 -30.2 24.4 -30.3Q24.4 -30.3 24.5 -30.3Q24.5 -30.3 24.6 -30.3L24.8 -30.2Q24.8 -30.2 24.9 -30.1Q24.9 -30 25 -30Q24.8 -29.9 24.8 -29.6Q25.1 -29.6 25.1 -29.5Q25.2 -29.5 25.2 -29.6Q25.3 -29.7 25.2 -29.7Q25.1 -29.9 25.2 -30Q25.3 -30 25.3 -30L25.8 -30.1Q25.8 -30 25.8 -30Q25.8 -29.9 25.9 -30Q26.1 -29.7 25.9 -29.7Q26.1 -29.5 26.1 -29.4L28.6 -12.9L36.1 -33.4Q36.2 -33.7 36.3 -33.7Q36.4 -33.7 36.5 -33.6Q36.6 -33.5 36.7 -33.5Q36.6 -33.3 36.5 -32.8Q36.3 -32.2 36.4 -32.2Q36.6 -32.5 36.9 -33.1Q37.3 -33.6 37.4 -33.8Q37.6 -33.8 37.4 -33.7Q37.6 -33.3 37.4 -33.1L37.4 -33L37.5 -33Q38 -33.3 38 -33.7Q38 -33.8 38.1 -33.8L38.5 -33.8Q38.6 -33.8 38.6 -33.5Q38.5 -33.3 38.5 -33.2Q38.5 -33 38.5 -32.8L38.3 -32.5Q38.5 -32.4 38.5 -32.2Q38.2 -31.6 38.2 -31.3Q38.2 -31.4 38.1 -31.3Q38.1 -31.3 38.1 -31.2Q38.2 -31.2 38.3 -31.3Q38.7 -32.4 39 -33.2Q39.2 -33.3 39.4 -33.3L39.7 -33.2Q39.8 -33.1 39.7 -33Q39.8 -32.9 39.7 -32.8Q39.3 -32.1 39.2 -31.5Q39.1 -31.5 39.1 -31.4Q39.3 -31.3 39.3 -31.5Q39.3 -32 39.5 -32.1L39.8 -32.5L39.9 -32.4Q40 -32.2 40.2 -32.2Q40.2 -32.2 40.2 -32.2Q40.2 -32.1 40.2 -32.1Q40 -31.7 40 -31.5L40 -31.3Q40.1 -31.2 40.1 -31.3Q40.2 -31.3 40.2 -31.2Q40.2 -31.2 40.2 -31Q40.2 -30.7 40.2 -30.5Q40.1 -30.3 40 -30.2Q40.2 -30 40.2 -30.2Q40.3 -30.5 40.5 -31Q40.6 -31.5 40.8 -31.9Q41 -32 41 -32Q41.2 -32 41.2 -32.2Q41.2 -32.2 41.2 -32.2Q41.2 -32.2 41.3 -32.2Q41.7 -32 41.7 -32Q41.7 -32 41.7 -31.9Q41.7 -31.8 41.7 -31.8Q41.6 -31.5 41.5 -31.3Q41.4 -31.2 41.3 -31L41.4 -30.8Q41.4 -30.8 41.4 -30.8Q41.5 -30.8 41.5 -30.8Q41.6 -31.2 41.8 -31.5L41.9 -31.5Q42.2 -31.7 42.4 -31.9Q42.4 -31.7 42.5 -31.6Q42.6 -31.5 42.6 -31.4zM36.7 -33.6L36.7 -33.7L36.7 -33.6zM36.7 -33.5L36.7 -33.5L36.7 -33.6L36.8 -33.5L36.7 -33.5zM18.9 -29.9L18.9 -30L18.9 -30L18.9 -29.9zM21.6 -29Q21.5 -28.7 21.5 -28.6L21.5 -28.6Q21.5 -28.6 21.7 -28.7Q21.6 -28.8 21.6 -28.9Q21.7 -28.9 21.6 -29zM7.2 -28.4L7.2 -28.4Q7.1 -28.3 7.1 -28.2L7.2 -28.4zM23.2 -27.7L23.3 -27.3L23.3 -27.4L23.3 -27.6L23.3 -27.6L23.3 -27.8Q23.3 -27.7 23.2 -27.7zM10.9 -3.9L10.9 -4L10.9 -4L10.9 -3.9zM10 -3L10 -3Q9.9 -3 9.9 -3Q9.9 -3 10 -3zM27.5 -2.1L27.5 -2.2Q27.5 -2.2 27.5 -2.1Q27.5 -2.1 27.5 -2.1zM27.5 -1.9L27.5 -1.9L27.5 -1.9L27.5 -2L27.5 -1.9zM26.7 -1.4L26.7 -1.4Q26.6 -1.4 26.7 -1.4M77.9 -18.4L77.9 -18.2L75.8 -5.1Q75.8 -4.9 75.6 -4.9Q75.5 -4.8 75.3 -4.7Q75.2 -4.8 75.1 -4.8Q75.1 -4.8 75.1 -4.7Q75.1 -4.6 75.1 -4.6Q75.1 -4.5 75 -4.4Q74.8 -4.5 74.6 -4.2L74.3 -4.4Q74.1 -4.7 74.3 -5.2Q74.1 -5.2 74.1 -5Q73.9 -4.5 73.9 -4.2Q74.1 -4.1 73.9 -4.1Q73.8 -4.2 73.6 -4.1Q73.5 -4 73.4 -3.9Q73 -3.9 73.2 -4Q73.2 -4.5 73.3 -4.7Q73 -4.7 73 -4.6L72.8 -4.5L72.8 -4.3Q72.8 -4.3 72.8 -4.3Q72.8 -4.2 72.8 -4.2L72.9 -4.2L73 -3.5L72.9 -3.5Q72.7 -3.3 72.5 -3.3Q72.3 -3.2 72.1 -3.2Q72.1 -3.2 72 -3.2Q72 -3.2 72 -3.2L72 -2.8L70.3 -2.4Q70.3 -2.2 70.4 -2.1Q70.5 -2 70.5 -2.1L72.8 -2.6Q72.9 -2.6 73 -2.5Q73 -2.5 73.2 -2.5L73.5 -2.5Q73.5 -2.6 73.6 -2.5Q73.6 -2.5 73.5 -2.5L73.5 -1.9Q73.5 -1.8 73.5 -1.7Q73.4 -1.7 73.3 -1.7L72.2 -1.4Q72.2 -1.4 55.3 0.6L55.1 0.6Q55.1 0.6 54.9 0.6Q54.8 0.6 54.7 0.7Q54.6 0.7 54.6 0.6Q54.6 0.6 54.5 0.5Q54.5 0.4 54.4 0.4Q54.5 0.2 54.4 0L54.5 0Q54.7 -0.1 54.7 -0.2L55 -0.3L55 -0.2Q54.8 -0.6 54.5 -0.3Q54.4 -0.3 54.3 -0.4L54.2 -0.5L54.2 -0.5L54.2 -0.6Q54.2 -0.6 54.1 -0.7Q54.1 -0.8 54.2 -0.9Q54.2 -0.9 54.2 -0.9Q54.2 -0.9 54.2 -0.9Q54.2 -0.9 54.3 -1Q54.3 -1 54.4 -1Q54.2 -1.4 54 -1.4Q53.8 -1.6 54 -1.6L54.1 -1.9Q54 -1.9 54.1 -1.9Q54.2 -1.9 54.3 -2L54.3 -2.4Q54.3 -2.7 54.5 -2.7Q54.9 -2.9 55 -3.1L54.9 -3.1Q54.9 -2.9 54.7 -2.9L54.1 -2.7Q54 -2.6 53.9 -2.6Q53.8 -2.7 53.8 -2.7Q53.8 -2.7 53.8 -2.7L53.5 -3.2Q53.7 -3.3 53.7 -3.3Q53.9 -3.4 54.1 -3.5Q54.3 -3.5 54.5 -3.6Q54.5 -3.8 54.8 -3.8L54.9 -3.8Q54.9 -4 54.7 -3.9Q54.4 -3.8 54.2 -3.5Q54.2 -3.5 54.1 -3.5Q54 -3.5 54 -3.5L53.6 -3.5L53.5 -3.5Q53.4 -3.3 53.3 -3.4L52.9 -3.6Q52.8 -3.6 52.8 -3.7Q52.8 -3.8 53 -3.9Q53.1 -4 53.1 -4.2L53.2 -4.2Q53.3 -4.3 53.5 -4.3Q53.7 -4.4 54 -4.5Q54 -4.5 54.2 -4.5Q54.4 -4.6 54.5 -4.7L53.9 -4.6Q53.8 -4.6 53.1 -4.2L52.9 -4.2Q52.9 -4.2 52.7 -4.5L52.6 -4.6L52.6 -4.9Q52.6 -5.2 53 -5.2Q53.1 -5.2 53.1 -5.3Q53.2 -5.4 53.2 -5.4Q53.4 -5.4 53.5 -5.7Q53.3 -5.7 53.2 -5.6Q53 -5.4 52.9 -5.7Q52.8 -5.8 52.7 -5.9Q52.7 -6 52.7 -6.1L53 -6.5Q54.7 -6.8 60 -7.4Q65.4 -8.1 68.9 -8.4L69.8 -13.3L57.6 -11.7L57.4 -11.7Q57.4 -11.6 57.3 -11.6Q57.2 -11.7 57.1 -11.7Q57.1 -11.6 57 -11.4Q57 -11.3 57 -10.9Q56.9 -10.9 56.9 -11.7Q56.9 -11.7 56.7 -11.9Q56.8 -12 56.7 -12.2L56.8 -12.2Q57 -12.3 57 -12.5L57.2 -12.5L57.4 -12.5Q57.1 -12.8 56.8 -12.5L56.6 -12.5Q56.4 -12.5 56.5 -12.6Q56.6 -12.8 56.6 -12.8L56.6 -12.9Q56.6 -12.9 56.5 -13Q56.5 -13.1 56.6 -13.2Q56.5 -13.2 56.5 -13.2Q56.4 -13.2 56.5 -13.2Q56.6 -13.3 56.6 -13.5Q56.6 -13.5 56.4 -13.5Q56.2 -13.8 56.3 -13.8L56.5 -14Q56.5 -14 56.6 -14.2L56.6 -14.5L56.6 -14.6Q56.6 -14.8 56.7 -14.9Q56.7 -14.9 56.7 -14.9Q56.8 -15 56.8 -15L56.6 -15L56.6 -14.6Q56.6 -14.5 56.5 -14.4Q56.4 -14.2 56.3 -14.2L56.3 -14L55.7 -14.1Q55.6 -14.2 55.6 -14.2Q55.5 -14.2 55.6 -14.2Q55.7 -14.3 55.7 -14.5Q55.6 -14.8 55.7 -14.8Q55.7 -14.9 55.7 -15Q55.7 -15.1 55.6 -15.1L55.3 -15.1Q55.3 -15.3 55.3 -15.8Q55.3 -15.8 55.3 -15.9Q55.3 -15.9 55.3 -15.9Q55.3 -15.9 55.3 -15.9Q55.3 -16 55.3 -16Q55.3 -16.2 55.4 -16.3L55.3 -16.3L55.3 -16.4L55.3 -16.3Q55.2 -15.8 55.1 -15.3Q55 -14.9 54.9 -14.5Q55 -14.3 54.8 -14.2Q54.8 -14.1 54.8 -14Q54.8 -13.9 54.7 -13.8Q54.6 -13.8 54.5 -13.8Q54.3 -13.9 54.2 -14Q54.2 -14 54.1 -14.1L54 -14.2Q54.2 -14.7 54.2 -15.1Q54.2 -15.1 54.2 -15.3Q54.2 -15.3 54.1 -15.3Q54.1 -15.3 54.2 -15.2Q54.1 -15 54 -14.9Q54 -14.7 53.8 -14.6Q53.9 -14.5 53.8 -14.3Q53.6 -14.2 53.3 -13.8Q53 -14.2 52.8 -14.2Q52.8 -14.2 52.8 -14.3Q52.8 -14.4 52.8 -14.4Q53 -16.3 53.8 -21.2Q54.6 -26.2 54.8 -26.5Q54.9 -26.9 54.9 -27.1Q54.9 -27.1 54.9 -27.1Q55 -27.1 55 -27.1Q55 -27.2 54.9 -27.2Q54.9 -27.5 55 -27.6L55 -27.7L55.2 -27.9L55.4 -27.8L55.7 -27.8L55.8 -27.8Q55.8 -27.5 56 -27.4Q55.9 -27.4 55.9 -27.3Q55.8 -27.3 55.8 -27.2L56 -27.2Q56.1 -27.4 56.2 -27.7Q56.4 -27.7 56.4 -27.8L56.6 -27.8L56.7 -27.8L56.6 -27.9Q56.4 -27.9 56.5 -27.9L56.7 -28.4L56.8 -28.4L57.6 -28.7Q57.6 -28.7 58 -29Q57.9 -29 57.7 -28.9Q57.6 -28.8 57.5 -28.8Q57.2 -28.7 56.7 -28.4L56.6 -28.4Q56.6 -28.5 56.3 -28.7Q56.3 -28.7 56.3 -28.9L56.3 -29.1Q56.3 -29.4 56.6 -29.4Q56.7 -29.4 56.7 -29.4Q56.8 -29.5 56.8 -29.5Q57 -29.5 57.1 -29.8Q56.9 -29.8 56.8 -29.7Q56.6 -29.6 56.6 -29.8Q56.5 -29.9 56.5 -30Q56.4 -30.2 56.3 -30.3Q56.5 -30.3 56.6 -30.5Q75.9 -33.2 76 -32.9Q76.1 -33 76.5 -33Q76.8 -33 76.9 -33.1Q76.9 -33 77 -32.8Q77 -32.7 77.1 -32.7Q77.1 -32.6 76.3 -32.4Q75.5 -32.1 75.6 -32L75.8 -32Q76 -32 76.4 -32Q76.9 -32.1 77.1 -32Q77.2 -31.9 76.5 -31.7Q75.8 -31.5 75.5 -31.4L75.9 -31.2Q76 -31.2 76.1 -31.2Q76.1 -31.2 76.1 -31.2Q76.3 -31.2 76.5 -31.4Q76.8 -31.5 76.9 -31.5Q77.1 -31.6 77.1 -31.5Q77.2 -31.4 77.2 -31.2L77.2 -30.9L77.2 -30.7Q77.1 -30.5 76.5 -30.4Q76.4 -30.3 76.3 -30.2Q76.2 -30.2 76.1 -30.2Q76.1 -30 76 -29.8Q75.7 -29.7 74.8 -29.5Q74.8 -29.5 74.8 -29.5Q74.8 -29.5 74.8 -29.5Q74.8 -29.4 74.8 -29.3Q74.8 -29.3 74.8 -29.4Q76.2 -29.7 77.2 -30Q77.4 -30 77.4 -29.9Q77.4 -29.8 77.4 -29.7Q77.4 -29.5 77.5 -29.5Q77.5 -29.5 77.4 -29.3Q77 -29.2 77 -29.1Q75.9 -28.7 75.5 -28.6L75.5 -28.5Q75.9 -28.5 76.3 -28.7Q76.4 -28.7 76.6 -28.7Q76.7 -28.8 76.9 -28.7L76.9 -28.7L77 -28.1L76.9 -28.1Q76.8 -27.9 76.2 -27.7Q76.2 -27.7 76.1 -27.7Q76.1 -27.7 76.1 -27.7L76.1 -27.4L74.6 -27Q74.6 -26.9 74.6 -26.8Q74.7 -26.6 74.8 -26.7L76.9 -27.2Q76.9 -27.2 77 -27.2Q77.1 -27.1 77.2 -27.1L77.4 -27.1Q77.5 -27.2 77.5 -27.2Q77.6 -27.1 77.5 -27.1L77.5 -26.6Q77.5 -26.5 77.4 -26.3Q77.4 -26.2 77.3 -26.2L76.4 -26.1Q76.3 -26 62.2 -24.2L61.5 -19.4Q74.1 -21 74.1 -20.8Q74.3 -20.9 74.6 -20.9Q74.9 -21 75.1 -21Q75.1 -20.9 75.1 -20.7Q75.1 -20.6 75.2 -20.6Q75.2 -20.5 74.4 -20.3Q73.6 -20 73.8 -19.9L73.9 -19.9Q74.1 -19.9 74.5 -19.9Q75 -20 75.2 -19.9Q75.3 -19.8 74.6 -19.6Q73.9 -19.4 73.6 -19.3L74.1 -19.2L74.2 -19.1Q74.3 -19.2 74.3 -19.2L74.4 -19.2L74.6 -19.2Q75 -19.4 75.1 -19.4Q75.3 -19.6 75.3 -19.4L75.6 -19.6L75.7 -19.7Q75.7 -19.7 75.9 -19.5Q76.1 -19.4 76.1 -19.2L76.2 -19.2Q76.1 -19 75.9 -18.2Q75.7 -17.4 75.7 -17.1Q75.7 -17.1 75.8 -17Q75.8 -16.9 75.8 -16.8L75.8 -16.8Q75.8 -17 75.7 -17.1Q75.9 -17.5 76 -18.2Q76.2 -18.9 76.3 -19.2L76.2 -19.2L76.6 -19.5L76.9 -19.4L76.9 -19.2L76.9 -19.1Q76.9 -19 76.9 -18.8L76.9 -18.4Q77.2 -18.6 77.2 -18.6Q77.2 -18.9 77.2 -18.9Q77.3 -18.9 77.4 -19L77.8 -19L77.9 -18.7Q78 -18.7 78 -18.6Q78 -18.5 77.9 -18.4zM60.8 -28.2Q60.8 -28.2 60.8 -28.2Q60.8 -28.2 60.8 -28.2zM58.2 -28.1Q58.1 -28.1 58 -27.9L58.1 -27.9L58.1 -27.9L58.3 -28L58.4 -28Q58.4 -28.2 58.2 -28.1zM57.1 -27.8L57 -27.6L56.9 -27.4Q57.1 -27.5 57.2 -27.6Q57.3 -27.7 57.3 -27.8L57.2 -27.8L57.1 -27.8zM57.6 -27.8L57.4 -27.8L57.4 -27.7L57.4 -27.6L57.7 -27.8L57.6 -27.8zM76.2 -19.2Q76.2 -19.2 76.2 -19.2Q76.2 -19.2 76.2 -19.2zM74.9 -18.4L74.8 -17.7Q74.9 -17.7 75 -17.8L75.1 -18.4L74.9 -18.4zM73.9 -17.6L73.9 -17.5L74.1 -17.5L74.1 -17.7Q74.1 -17.6 73.9 -17.6zM74.7 -16.8L74.8 -16.8Q74.8 -16.8 74.7 -16.8Q74.6 -16.8 74.6 -16.7L74.8 -16.6L74.8 -16.6Q74.9 -16.6 74.9 -16.7L74.8 -16.8L74.7 -16.8zM73.2 -5.5Q73.2 -6.3 73.3 -6.6L73.3 -6.7Q73.3 -6.8 73.2 -6.7Q73.2 -6.7 73.1 -6.7Q73.2 -6.6 73.2 -6.4L73.2 -6.3L73.2 -6.3Q73.1 -6 72.9 -6Q72.9 -5.6 72.8 -5.5L73.2 -5.5zM72 -5.2L72.1 -5.8L72 -5.8L72 -5.5Q72 -5.4 71.9 -5.3Q71.8 -5.2 71.8 -5.2L72 -5.2zM70.7 -4.8L71.4 -5L71.2 -5L71.1 -5.1L70.6 -5Q70.6 -5 70.6 -5Q70.5 -5 70.5 -5Q70.5 -4.7 70.7 -4.8zM71.9 -4.2L72 -4.2L71.4 -4.1Q71.4 -4.1 71.3 -4.1Q71.3 -4 71.3 -4Q71.3 -3.9 71.3 -3.9Q71.4 -3.9 71.4 -4Q71.7 -4 72 -4.1Q71.9 -4.1 71.9 -4.1Q71.8 -4.2 71.9 -4.2M114.9 -18.4L114.9 -18.2L112.8 -5.1Q112.8 -4.9 112.6 -4.9Q112.5 -4.8 112.3 -4.7Q112.2 -4.8 112.1 -4.8Q112.1 -4.8 112.1 -4.7Q112.1 -4.6 112.1 -4.6Q112.1 -4.5 112 -4.4Q111.8 -4.5 111.6 -4.2L111.3 -4.4Q111.1 -4.7 111.3 -5.2Q111.1 -5.2 111.1 -5Q110.9 -4.5 110.9 -4.2Q111.1 -4.1 110.9 -4.1Q110.8 -4.2 110.6 -4.1Q110.5 -4 110.4 -3.9Q110 -3.9 110.2 -4Q110.2 -4.5 110.3 -4.7Q110 -4.7 110 -4.6L109.8 -4.5L109.8 -4.3Q109.8 -4.3 109.8 -4.3Q109.8 -4.2 109.8 -4.2L109.9 -4.2L110 -3.5L109.9 -3.5Q109.7 -3.3 109.5 -3.3Q109.3 -3.2 109.1 -3.2Q109.1 -3.2 109 -3.2Q109 -3.2 109 -3.2L109 -2.8L107.3 -2.4Q107.3 -2.2 107.4 -2.1Q107.5 -2 107.5 -2.1L109.8 -2.6Q109.9 -2.6 110 -2.5Q110 -2.5 110.2 -2.5L110.5 -2.5Q110.5 -2.6 110.6 -2.5Q110.6 -2.5 110.5 -2.5L110.5 -1.9Q110.5 -1.8 110.5 -1.7Q110.4 -1.7 110.3 -1.7L109.2 -1.4Q109.2 -1.4 92.3 0.6L92.1 0.6Q92.1 0.6 91.9 0.6Q91.8 0.6 91.7 0.7Q91.6 0.7 91.6 0.6Q91.6 0.6 91.5 0.5Q91.5 0.4 91.4 0.4Q91.5 0.2 91.4 0L91.5 0Q91.7 -0.1 91.7 -0.2L92 -0.3L92 -0.2Q91.8 -0.6 91.5 -0.3Q91.4 -0.3 91.3 -0.4L91.2 -0.5L91.2 -0.5L91.2 -0.6Q91.2 -0.6 91.1 -0.7Q91.1 -0.8 91.2 -0.9Q91.2 -0.9 91.2 -0.9Q91.2 -0.9 91.2 -0.9Q91.2 -0.9 91.3 -1Q91.3 -1 91.4 -1Q91.2 -1.4 91 -1.4Q90.8 -1.6 91 -1.6L91.1 -1.9Q91 -1.9 91.1 -1.9Q91.2 -1.9 91.3 -2L91.3 -2.4Q91.3 -2.7 91.5 -2.7Q91.9 -2.9 92 -3.1L91.9 -3.1Q91.9 -2.9 91.7 -2.9L91.1 -2.7Q91 -2.6 90.9 -2.6Q90.8 -2.7 90.8 -2.7Q90.8 -2.7 90.8 -2.7L90.5 -3.2Q90.7 -3.3 90.7 -3.3Q90.9 -3.4 91.1 -3.5Q91.3 -3.5 91.5 -3.6Q91.5 -3.8 91.8 -3.8L91.9 -3.8Q91.9 -4 91.7 -3.9Q91.4 -3.8 91.2 -3.5Q91.2 -3.5 91.1 -3.5Q91 -3.5 91 -3.5L90.6 -3.5L90.5 -3.5Q90.4 -3.3 90.3 -3.4L89.9 -3.6Q89.8 -3.6 89.8 -3.7Q89.8 -3.8 90 -3.9Q90.1 -4 90.1 -4.2L90.2 -4.2Q90.3 -4.3 90.5 -4.3Q90.7 -4.4 91 -4.5Q91 -4.5 91.2 -4.5Q91.4 -4.6 91.5 -4.7L90.9 -4.6Q90.8 -4.6 90.1 -4.2L89.9 -4.2Q89.9 -4.2 89.7 -4.5L89.6 -4.6L89.6 -4.9Q89.6 -5.2 90 -5.2Q90.1 -5.2 90.1 -5.3Q90.2 -5.4 90.2 -5.4Q90.4 -5.4 90.5 -5.7Q90.3 -5.7 90.2 -5.6Q90 -5.4 89.9 -5.7Q89.8 -5.8 89.7 -5.9Q89.7 -6 89.7 -6.1L90 -6.5Q91.7 -6.8 97 -7.4Q102.4 -8.1 105.9 -8.4L106.8 -13.3L94.6 -11.7L94.4 -11.7Q94.4 -11.6 94.3 -11.6Q94.2 -11.7 94.1 -11.7Q94.1 -11.6 94 -11.4Q94 -11.3 94 -10.9Q93.9 -10.9 93.9 -11.7Q93.9 -11.7 93.7 -11.9Q93.8 -12 93.7 -12.2L93.8 -12.2Q94 -12.3 94 -12.5L94.2 -12.5L94.4 -12.5Q94.1 -12.8 93.8 -12.5L93.6 -12.5Q93.4 -12.5 93.5 -12.6Q93.6 -12.8 93.6 -12.8L93.6 -12.9Q93.6 -12.9 93.5 -13Q93.5 -13.1 93.6 -13.2Q93.5 -13.2 93.5 -13.2Q93.4 -13.2 93.5 -13.2Q93.6 -13.3 93.6 -13.5Q93.6 -13.5 93.4 -13.5Q93.2 -13.8 93.3 -13.8L93.5 -14Q93.5 -14 93.6 -14.2L93.6 -14.5L93.6 -14.6Q93.6 -14.8 93.7 -14.9Q93.7 -14.9 93.7 -14.9Q93.8 -15 93.8 -15L93.6 -15L93.6 -14.6Q93.6 -14.5 93.5 -14.4Q93.4 -14.2 93.3 -14.2L93.3 -14L92.7 -14.1Q92.6 -14.2 92.6 -14.2Q92.5 -14.2 92.6 -14.2Q92.7 -14.3 92.7 -14.5Q92.6 -14.8 92.7 -14.8Q92.7 -14.9 92.7 -15Q92.7 -15.1 92.6 -15.1L92.3 -15.1Q92.3 -15.3 92.3 -15.8Q92.3 -15.8 92.3 -15.9Q92.3 -15.9 92.3 -15.9Q92.3 -15.9 92.3 -15.9Q92.3 -16 92.3 -16Q92.3 -16.2 92.4 -16.3L92.3 -16.3L92.3 -16.4L92.3 -16.3Q92.2 -15.8 92.1 -15.3Q92 -14.9 91.9 -14.5Q92 -14.3 91.8 -14.2Q91.8 -14.1 91.8 -14Q91.8 -13.9 91.7 -13.8Q91.6 -13.8 91.5 -13.8Q91.3 -13.9 91.2 -14Q91.2 -14 91.1 -14.1L91 -14.2Q91.2 -14.7 91.2 -15.1Q91.2 -15.1 91.2 -15.3Q91.2 -15.3 91.1 -15.3Q91.1 -15.3 91.2 -15.2Q91.1 -15 91 -14.9Q91 -14.7 90.8 -14.6Q90.9 -14.5 90.8 -14.3Q90.6 -14.2 90.3 -13.8Q90 -14.2 89.8 -14.2Q89.8 -14.2 89.8 -14.3Q89.8 -14.4 89.8 -14.4Q90 -16.3 90.8 -21.2Q91.6 -26.2 91.8 -26.5Q91.9 -26.9 91.9 -27.1Q91.9 -27.1 91.9 -27.1Q92 -27.1 92 -27.1Q92 -27.2 91.9 -27.2Q91.9 -27.5 92 -27.6L92 -27.7L92.2 -27.9L92.4 -27.8L92.7 -27.8L92.8 -27.8Q92.8 -27.5 93 -27.4Q92.9 -27.4 92.9 -27.3Q92.8 -27.3 92.8 -27.2L93 -27.2Q93.1 -27.4 93.2 -27.7Q93.4 -27.7 93.4 -27.8L93.6 -27.8L93.7 -27.8L93.6 -27.9Q93.4 -27.9 93.5 -27.9L93.7 -28.4L93.8 -28.4L94.6 -28.7Q94.6 -28.7 95 -29Q94.9 -29 94.7 -28.9Q94.6 -28.8 94.5 -28.8Q94.2 -28.7 93.7 -28.4L93.6 -28.4Q93.6 -28.5 93.3 -28.7Q93.3 -28.7 93.3 -28.9L93.3 -29.1Q93.3 -29.4 93.6 -29.4Q93.7 -29.4 93.7 -29.4Q93.8 -29.5 93.8 -29.5Q94 -29.5 94.1 -29.8Q93.9 -29.8 93.8 -29.7Q93.6 -29.6 93.6 -29.8Q93.5 -29.9 93.5 -30Q93.4 -30.2 93.3 -30.3Q93.5 -30.3 93.6 -30.5Q112.9 -33.2 113 -32.9Q113.1 -33 113.5 -33Q113.8 -33 113.9 -33.1Q113.9 -33 114 -32.8Q114 -32.7 114.1 -32.7Q114.1 -32.6 113.3 -32.4Q112.5 -32.1 112.6 -32L112.8 -32Q113 -32 113.4 -32Q113.9 -32.1 114.1 -32Q114.2 -31.9 113.5 -31.7Q112.8 -31.5 112.5 -31.4L112.9 -31.2Q113 -31.2 113.1 -31.2Q113.1 -31.2 113.1 -31.2Q113.3 -31.2 113.5 -31.4Q113.8 -31.5 113.9 -31.5Q114.1 -31.6 114.1 -31.5Q114.2 -31.4 114.2 -31.2L114.2 -30.9L114.2 -30.7Q114.1 -30.5 113.5 -30.4Q113.4 -30.3 113.3 -30.2Q113.2 -30.2 113.1 -30.2Q113.1 -30 113 -29.8Q112.7 -29.7 111.8 -29.5Q111.8 -29.5 111.8 -29.5Q111.8 -29.5 111.8 -29.5Q111.8 -29.4 111.8 -29.3Q111.8 -29.3 111.8 -29.4Q113.2 -29.7 114.2 -30Q114.4 -30 114.4 -29.9Q114.4 -29.8 114.4 -29.7Q114.4 -29.5 114.5 -29.5Q114.5 -29.5 114.4 -29.3Q114 -29.2 114 -29.1Q112.9 -28.7 112.5 -28.6L112.5 -28.5Q112.9 -28.5 113.3 -28.7Q113.4 -28.7 113.6 -28.7Q113.7 -28.8 113.9 -28.7L113.9 -28.7L114 -28.1L113.9 -28.1Q113.8 -27.9 113.2 -27.7Q113.2 -27.7 113.1 -27.7Q113.1 -27.7 113.1 -27.7L113.1 -27.4L111.6 -27Q111.6 -26.9 111.6 -26.8Q111.7 -26.6 111.8 -26.7L113.9 -27.2Q113.9 -27.2 114 -27.2Q114.1 -27.1 114.2 -27.1L114.4 -27.1Q114.5 -27.2 114.5 -27.2Q114.6 -27.1 114.5 -27.1L114.5 -26.6Q114.5 -26.5 114.4 -26.3Q114.4 -26.2 114.3 -26.2L113.4 -26.1Q113.3 -26 99.2 -24.2L98.5 -19.4Q111.1 -21 111.1 -20.8Q111.3 -20.9 111.6 -20.9Q111.9 -21 112.1 -21Q112.1 -20.9 112.1 -20.7Q112.1 -20.6 112.2 -20.6Q112.2 -20.5 111.4 -20.3Q110.6 -20 110.8 -19.9L110.9 -19.9Q111.1 -19.9 111.5 -19.9Q112 -20 112.2 -19.9Q112.3 -19.8 111.6 -19.6Q110.9 -19.4 110.6 -19.3L111.1 -19.2L111.2 -19.1Q111.3 -19.2 111.3 -19.2L111.4 -19.2L111.6 -19.2Q112 -19.4 112.1 -19.4Q112.3 -19.6 112.3 -19.4L112.6 -19.6L112.7 -19.7Q112.7 -19.7 112.9 -19.5Q113.1 -19.4 113.1 -19.2L113.2 -19.2Q113.1 -19 112.9 -18.2Q112.7 -17.4 112.7 -17.1Q112.7 -17.1 112.8 -17Q112.8 -16.9 112.8 -16.8L112.8 -16.8Q112.8 -17 112.7 -17.1Q112.9 -17.5 113 -18.2Q113.2 -18.9 113.3 -19.2L113.2 -19.2L113.6 -19.5L113.9 -19.4L113.9 -19.2L113.9 -19.1Q113.9 -19 113.9 -18.8L113.9 -18.4Q114.2 -18.6 114.2 -18.6Q114.2 -18.9 114.2 -18.9Q114.3 -18.9 114.4 -19L114.8 -19L114.9 -18.7Q115 -18.7 115 -18.6Q115 -18.5 114.9 -18.4zM97.8 -28.2Q97.8 -28.2 97.8 -28.2Q97.8 -28.2 97.8 -28.2zM95.2 -28.1Q95.1 -28.1 95 -27.9L95.1 -27.9L95.1 -27.9L95.3 -28L95.4 -28Q95.4 -28.2 95.2 -28.1zM94.1 -27.8L94 -27.6L93.9 -27.4Q94.1 -27.5 94.2 -27.6Q94.3 -27.7 94.3 -27.8L94.2 -27.8L94.1 -27.8zM94.6 -27.8L94.4 -27.8L94.4 -27.7L94.4 -27.6L94.7 -27.8L94.6 -27.8zM113.2 -19.2Q113.2 -19.2 113.2 -19.2Q113.2 -19.2 113.2 -19.2zM111.9 -18.4L111.8 -17.7Q111.9 -17.7 112 -17.8L112.1 -18.4L111.9 -18.4zM110.9 -17.6L110.9 -17.5L111.1 -17.5L111.1 -17.7Q111.1 -17.6 110.9 -17.6zM111.7 -16.8L111.8 -16.8Q111.8 -16.8 111.7 -16.8Q111.6 -16.8 111.6 -16.7L111.8 -16.6L111.8 -16.6Q111.9 -16.6 111.9 -16.7L111.8 -16.8L111.7 -16.8zM110.2 -5.5Q110.2 -6.3 110.3 -6.6L110.3 -6.7Q110.3 -6.8 110.2 -6.7Q110.2 -6.7 110.1 -6.7Q110.2 -6.6 110.2 -6.4L110.2 -6.3L110.2 -6.3Q110.1 -6 109.9 -6Q109.9 -5.6 109.8 -5.5L110.2 -5.5zM109 -5.2L109.1 -5.8L109 -5.8L109 -5.5Q109 -5.4 108.9 -5.3Q108.8 -5.2 108.8 -5.2L109 -5.2zM107.7 -4.8L108.4 -5L108.2 -5L108.1 -5.1L107.6 -5Q107.6 -5 107.6 -5Q107.5 -5 107.5 -5Q107.5 -4.7 107.7 -4.8zM108.9 -4.2L109 -4.2L108.4 -4.1Q108.4 -4.1 108.3 -4.1Q108.3 -4 108.3 -4Q108.3 -3.9 108.3 -3.9Q108.4 -3.9 108.4 -4Q108.7 -4 109 -4.1Q108.9 -4.1 108.9 -4.1Q108.8 -4.2 108.9 -4.2"
                              style="" fill="#000000" id="namepathdata"/>
                    </g>
                </g>
                <g class="slogan">
                    <g id="sloganDefaultGroup"/>
                </g>
            </g>
            <g class="border">
            </g>
        </g>
        <defs id="defs">
            <mask xmlns="http://www.w3.org/2000/svg" id="mask">
                <rect id="showAll" fill="white" x="0" y="0" width="0" height="0"/>
                <rect id="hideNameBg" fill="black" x="0" y="0" width="0" height="0" stroke-width="2" stroke="black"/>
                <rect id="hideSloganBg" fill="black" x="0" y="0" width="0" height="0" stroke-width="2" stroke="black"/>
            </mask>

        </defs>
    </g>
</svg>